<?xml version="1.0" standalone="no"?>
<!DOCTYPE svg PUBLIC "-//W3C//DTD SVG 20010904//EN"
 "http://www.w3.org/TR/2001/REC-SVG-20010904/DTD/svg10.dtd">
<svg version="1.0" xmlns="http://www.w3.org/2000/svg"
 width="1280.000000pt" height="971.000000pt" viewBox="0 0 1280.000000 971.000000"
 preserveAspectRatio="xMidYMid meet">

<g transform="translate(0.000000,971.000000) scale(0.100000,-0.100000)"
fill="#000000" stroke="none">
<path d="M0 4855 l0 -4855 6400 0 6400 0 0 4855 0 4855 -6400 0 -6400 0 0
-4855z m4841 3823 c41 -36 423 -416 849 -844 2125 -2133 1925 -1937 1962
-1929 26 5 103 77 375 350 317 318 383 391 383 422 0 6 -457 467 -1015 1025
-558 557 -1015 1018 -1015 1024 0 7 10 14 23 17 32 8 1314 9 1365 1 42 -6 83
-45 1068 -1029 778 -776 1024 -1027 1024 -1045 0 -18 -74 -98 -285 -309 -1335
-1340 -1919 -1929 -1932 -1948 -10 -15 -12 -33 -8 -52 5 -23 261 -284 1051
-1073 1295 -1292 1456 -1455 1466 -1472 5 -8 4 -17 -2 -21 -7 -5 -894 -8
-1363 -5 l-49 0 -439 438 c-242 240 -522 520 -622 620 -100 101 -197 198 -216
215 -41 39 -931 932 -1146 1150 -142 145 -157 157 -182 151 -35 -9 -44 -17
-338 -310 -396 -394 -407 -407 -399 -440 5 -19 284 -305 891 -912 485 -487
883 -891 883 -899 0 -7 -10 -13 -22 -13 -13 -1 -331 -1 -707 0 l-684 0 -59 56
c-32 30 -278 276 -546 545 -335 335 -495 489 -509 489 -14 0 -183 -162 -537
-515 -284 -283 -520 -515 -525 -515 -6 0 -12 4 -16 9 -3 6 -5 319 -5 696 0
571 2 691 14 713 12 23 414 426 2011 2018 399 398 575 582 575 602 0 31 -681
712 -712 712 -17 0 -253 -231 -941 -922 -868 -872 -918 -921 -935 -904 -16 16
-17 65 -15 684 1 367 5 683 8 702 6 29 92 120 556 585 301 302 555 559 563
570 9 11 16 29 16 40 0 13 -224 242 -670 685 -369 366 -670 673 -670 682 0 9
6 18 13 21 6 2 323 4 703 3 l691 -1 74 -67z"/>
</g>
</svg>
