<?xml version="1.0" encoding="UTF-8"?>
<svg version="1.1" viewBox="0 0 1520 1600" width="1280" height="1280" xmlns="http://www.w3.org/2000/svg">
<path transform="translate(388 157)" d="m0 0c10.5-0.0307 21-0.0775 31.5-0.162 9.33-0.0751 18.7-0.122 28-0.135 4.89-0.00752 9.78-0.0284 14.7-0.083 4.55-0.0504 9.1-0.0631 13.6-0.0467 1.66-6.03e-4 3.32-0.0148 4.98-0.0439 12.5-0.208 12.5-0.208 17 2.71 2.01 1.98 3.65 3.96 5.28 6.25 2.45 2.51 4.8 4.84 7.56 7 2.57 2.11 4.36 4.41 6.44 7 1.24 0.99 1.24 0.99 2.5 2 2.5 2 2.5 2 4.44 4.44 2.05 2.72 2.05 2.72 5.06 5.06 2.8 2.34 4.78 4.63 7 7.5 3.2 3.37 6.59 6.41 10.2 9.38 2.39 2.11 4.6 4.36 6.84 6.62 1.18 1.16 2.37 2.32 3.55 3.48 1.25 1.24 2.51 2.47 3.76 3.71 0.645 0.628 1.29 1.26 1.96 1.9 0.914 0.904 0.914 0.904 1.85 1.83 0.832 0.816 0.832 0.816 1.68 1.65 1.21 1.43 1.21 1.43 1.21 3.43 0.99 0.33 1.98 0.66 3 1v2c0.99 0.33 1.98 0.66 3 1v2c0.832 0.342 0.832 0.342 1.68 0.691 2.98 1.68 5.02 3.8 7.42 6.25 0.476 0.481 0.951 0.961 1.44 1.46 1.51 1.53 3.02 3.07 4.52 4.61 1.51 1.54 3.02 3.07 4.53 4.61 1.37 1.39 2.74 2.78 4.11 4.18 2.29 2.34 2.29 2.34 5.3 4.21v2c0.99 0.33 1.98 0.66 3 1v2c0.99 0.33 1.98 0.66 3 1 1.51 1.53 1.51 1.53 3.12 3.5 4.04 4.77 8.43 9.12 12.9 13.5 0.908 0.928 1.82 1.86 2.75 2.81 2.26 2.28 2.26 2.28 5.06 4.38 0.722 0.598 1.44 1.2 2.19 1.81v2h2c1.36 1.64 2.69 3.32 4 5 2.71 2.86 5.54 5.47 8.56 8 2.88 2.43 5.13 5.01 7.44 8 2.39 2.45 4.83 4.83 7.31 7.19 1.69 1.81 1.69 1.81 1.69 3.81 0.639 0.268 1.28 0.536 1.94 0.812 2.06 1.19 2.06 1.19 3.06 4.19 0.577 0.289 1.15 0.577 1.75 0.875 3.05 1.52 4.98 3.61 7.25 6.12 0.33 0.99 0.66 1.98 1 3 0.66 0.33 1.32 0.66 2 1 0.66 0.33 1.32 0.66 2 1 0.33 0.99 0.66 1.98 1 3 0.66 0.33 1.32 0.66 2 1 0.66 0.33 1.32 0.66 2 1 0.33 0.99 0.66 1.98 1 3 0.66 0.33 1.32 0.66 2 1 0.66 0.33 1.32 0.66 2 1 0.33 0.99 0.66 1.98 1 3 1.32 0.696 2.65 1.36 4 2 1.34 1.16 2.64 2.37 3.89 3.62 0.709 0.706 1.42 1.41 2.15 2.14 0.73 0.737 1.46 1.47 2.21 2.23 0.745 0.737 1.49 1.47 2.26 2.23 0.704 0.706 1.41 1.41 2.13 2.14 0.645 0.647 1.29 1.29 1.95 1.96 1.41 1.66 1.41 1.66 1.41 3.66h3c0.247 0.784 0.495 1.57 0.75 2.38 0.949 2.7 0.949 2.7 2.97 3.45 3.21 1.66 5.52 4.13 8.03 6.68 0.507 0.499 1.01 0.998 1.54 1.51 3.71 3.73 3.71 3.73 3.71 5.99 0.866 0.371 0.866 0.371 1.75 0.75 2.58 1.43 4.31 3.03 6.25 5.25v2h2c1.44 1.5 1.44 1.5 3 3.44 2.15 2.71 2.15 2.71 5 4.56v2h2c1.52 1.57 1.52 1.57 3.25 3.69 2.17 2.56 4.16 4.65 6.75 6.81 2.37 1.97 4.11 3.71 6.07 6.04 4.36 5.04 9.06 9.68 13.8 14.4 1.41 1.4 2.82 2.8 4.23 4.2 3.44 3.42 6.89 6.83 10.3 10.2 1.95 1.93 3.9 3.86 5.84 5.8 1.83 1.82 3.66 3.63 5.49 5.44 1.23 1.22 1.23 1.22 2.48 2.47 0.725 0.718 1.45 1.44 2.2 2.17 1.55 1.78 1.55 1.78 1.55 3.78 0.959 0.402 0.959 0.402 1.94 0.812 2.06 1.19 2.06 1.19 3.06 4.19 1.32 0.696 2.65 1.36 4 2 1.34 1.16 2.64 2.37 3.89 3.62 0.709 0.706 1.42 1.41 2.15 2.14 0.73 0.737 1.46 1.47 2.21 2.23 0.745 0.737 1.49 1.47 2.26 2.23 1.06 1.06 1.06 1.06 2.13 2.14 0.645 0.647 1.29 1.29 1.95 1.96 1.41 1.66 1.41 1.66 1.41 3.66 0.959 0.402 0.959 0.402 1.94 0.812 2.06 1.19 2.06 1.19 3.06 4.19 0.66 0.33 1.32 0.66 2 1 0.66 0.33 1.32 0.66 2 1 0.33 0.99 0.66 1.98 1 3 0.66 0.33 1.32 0.66 2 1 0.66 0.33 1.32 0.66 2 1 0.33 0.99 0.66 1.98 1 3 2 1.21 2 1.21 4 2v2c0.99 0.33 1.98 0.66 3 1v2c0.99 0.33 1.98 0.66 3 1 1.72 1.78 1.72 1.78 3.5 3.94 2.13 2.57 3.68 4.19 6.5 6.06v2c0.99 0.33 1.98 0.66 3 1v2h2c2.12 1.87 2.12 1.87 4 4v2c0.99 0.33 1.98 0.66 3 1v2c0.99 0.33 1.98 0.66 3 1v2c0.99 0.33 1.98 0.66 3 1 2.19 1.94 2.19 1.94 4 4v2c0.99 0.33 1.98 0.66 3 1v2c0.99 0.33 1.98 0.66 3 1v2c0.99 0.33 1.98 0.66 3 1 1.54 1.56 1.54 1.56 3.18 3.55 3.77 4.44 7.8 8.54 11.9 12.6 0.69 0.685 1.38 1.37 2.09 2.08 1.29 1.28 2.57 2.55 3.86 3.83 2.32 2.3 4.62 4.6 6.93 6.91 1.4 1.39 2.8 2.78 4.2 4.17 2.13 2.11 4.25 4.23 6.38 6.35 1.12 1.12 2.25 2.23 3.37 3.35 1.63 1.62 3.26 3.24 4.88 4.86 0.504 0.499 1.01 0.998 1.53 1.51 3.53 3.53 3.53 3.53 4.64 5.76 3.29 0.418 3.29 0.418 7 0 2.81-2.4 2.81-2.4 5-5h2c0.33-0.99 0.66-1.98 1-3 1.67-1.65 1.67-1.65 3.75-3.38 3.26-2.73 6.26-5.6 9.25-8.62 0.909-0.897 1.82-1.79 2.75-2.72 0.927-0.918 1.85-1.84 2.81-2.78 0.929-0.918 1.86-1.84 2.82-2.78 2.38-2.47 4.49-5.04 6.62-7.72 1.67-1.33 3.33-2.67 5-4 0.639-0.804 1.28-1.61 1.94-2.44 2.39-2.97 5.14-5.13 8.06-7.56 1.34-1.66 2.67-3.33 4-5 0.804-0.639 1.61-1.28 2.44-1.94 2.14-1.72 3.57-3.2 5.25-5.31 0.763-0.908 1.53-1.82 2.31-2.75h2c0.33-0.99 0.66-1.98 1-3h2c0.33-0.99 0.66-1.98 1-3h2c0.227-0.557 0.454-1.11 0.688-1.69 2.27-4 4.93-6.85 9.31-8.31v-2c1.88-2.13 1.88-2.13 4-4h2c0.33-0.99 0.66-1.98 1-3h2c0.33-0.99 0.66-1.98 1-3 1.44-1.69 1.44-1.69 3-3h2c0.66-1.32 1.32-2.64 2-4h2c0.248-0.619 0.495-1.24 0.75-1.88 1.49-2.53 2.69-2.84 5.25-4.12 0.33-0.66 0.66-1.32 1-2 1.26-2.53 2.53-2.76 5-4 0.704-1.31 1.36-2.65 2-4 0.846-1.01 1.69-2.02 2.56-3.06 2.57-2.74 2.57-2.74 3.44-5.94-1.26-1.97-1.26-1.97-3.12-3.88-0.976-1.06-0.976-1.06-1.97-2.14-0.628-0.656-1.26-1.31-1.9-1.99-0.846-0.887-1.69-1.77-2.56-2.69-1.87-1.78-3.74-3.39-5.75-5-0.887-0.763-1.77-1.53-2.69-2.31v-2c-0.533-0.209-1.07-0.417-1.62-0.632-3.33-1.91-5.84-4.55-8.53-7.25-0.605-0.602-1.21-1.2-1.83-1.82-2-1.99-3.98-3.98-5.97-5.98-1.38-1.38-2.77-2.77-4.15-4.15-2.9-2.9-5.79-5.79-8.68-8.7-3.71-3.73-7.44-7.44-11.2-11.2-2.86-2.85-5.71-5.71-8.56-8.56-1.37-1.37-2.74-2.74-4.12-4.11-1.92-1.91-3.82-3.83-5.73-5.75-0.573-0.569-1.15-1.14-1.74-1.73-3.89-3.93-3.89-3.93-3.89-6.16-0.531-0.206-1.06-0.413-1.61-0.625-3.4-1.95-5.9-4.6-8.64-7.38-0.831-0.82-0.831-0.82-1.68-1.66-4.07-4.09-4.07-4.09-4.07-6.34-0.99-0.33-1.98-0.66-3-1-0.33-0.66-0.66-1.32-1-2-0.66-0.66-1.32-1.32-2-2-0.33-0.66-0.66-1.32-1-2-0.722-0.416-1.44-0.833-2.19-1.26-3.4-2.1-6.04-4.71-8.81-7.55-0.508-0.509-1.02-1.02-1.54-1.54-3.36-3.4-6.43-6.95-9.46-10.6-1.31-1.35-2.64-2.69-4-4-6-6-6-6-8.31-8.38-2.56-2.59-2.56-2.59-5.06-4.5-5.18-4.19-9.2-8.41-12.6-14.1-0.959-0.464-0.959-0.464-1.94-0.938-2.5-1.29-3.34-2.93-4.8-5.27-2.93-4.14-6.81-8.58-11.4-10.8-1.88-0.953-1.88-0.953-3.88-3.95-1.65-1.69-3.31-3.35-5-5-1.45-1.45-2.88-2.91-4.31-4.38-2.58-2.62-2.58-2.62-5.25-4.62-2.6-2.13-4.39-4.34-6.44-7-1.01-1.26-2.03-2.51-3.06-3.75-0.729-0.889-0.729-0.889-1.47-1.8-1.51-1.72-1.51-1.72-4.46-2.45v-2c-1.66-1.01-3.33-2.01-5-3-0.66-0.99-1.32-1.98-2-3-1.73-1.53-3.53-2.96-5.34-4.4-1.66-1.6-1.66-1.6-2.62-3.66-1.32-2.47-2.54-2.75-5.03-3.93-1.61-1.45-3.17-2.95-4.69-4.5-0.788-0.794-1.58-1.59-2.39-2.41-1.93-2.09-1.93-2.09-2.93-4.09-2.44-2.58-4.9-4.92-7.69-7.12-2.31-1.88-2.31-1.88-4.31-4.88-2.05-2.2-4.09-4.07-6.5-5.88-2.84-2.41-4.46-5.03-6.5-8.12-1.3-1.05-2.63-2.05-4-3-1.67-1.67-3.33-3.33-5-5-0.784-0.619-1.57-1.24-2.38-1.88-8.51-6.89-8.51-6.89-10.6-11.1-1.31-1.35-2.65-2.69-4-4-0.66-0.66-1.32-1.32-2-2-1.12-0.942-2.25-1.88-3.38-2.81-2.94-2.5-5.23-5.16-7.62-8.19-1.63-1.37-3.3-2.71-5-4-2.07-1.61-4.03-3.26-6-5v-2c-0.66-0.33-1.32-0.66-2-1-3.5-3.5-3.5-3.5-7-7-0.516-0.495-1.03-0.99-1.56-1.5-1.44-1.5-1.44-1.5-2.44-3.5h-3v-2c-1.97-2.35-3-3-6-4-1.19-2.56-1.19-2.56-2-5 3.54-3.54 14.9-2.17 19.8-2.19 0.947-0.00862 1.89-0.0172 2.87-0.0261 3.15-0.0273 6.3-0.0476 9.45-0.0677 2.27-0.0177 4.54-0.0357 6.8-0.054 20.6-0.159 41.3-0.243 61.9-0.31 2.76-0.00905 5.52-0.0183 8.28-0.0276 1.03-0.00348 1.03-0.00348 2.08-0.00703 11.1-0.0388 22.2-0.119 33.3-0.216 11.4-0.0987 22.9-0.155 34.3-0.173 6.41-0.0115 12.8-0.0417 19.2-0.118 6.03-0.071 12.1-0.0896 18.1-0.0689 2.21-0.00142 4.41-0.0216 6.62-0.0622 18.4-0.322 18.4-0.322 24.8 5.1 2.32 2.27 4.38 4.75 6.48 7.22 1.94 1.75 3.96 3.36 6 5 2.38 2.19 2.38 2.19 4 4v2c0.99 0.33 1.98 0.66 3 1v2c0.99 0.33 1.98 0.66 3 1 1.34 1.66 2.68 3.33 4 5 1.65 1.36 3.31 2.69 5 4 2.31 2.12 2.31 2.12 4 4v2c0.99 0.33 1.98 0.66 3 1v2c0.99 0.33 1.98 0.66 3 1v2c0.99 0.33 1.98 0.66 3 1v2c0.99 0.33 1.98 0.66 3 1v2c1.32 0.66 2.64 1.32 4 2v2c0.99 0.33 1.98 0.66 3 1v2c0.99 0.33 1.98 0.66 3 1v2c0.619 0.248 1.24 0.495 1.88 0.75 2.53 1.49 2.84 2.69 4.12 5.25 0.601 0.297 1.2 0.594 1.82 0.901 2.49 1.26 4.06 2.72 6.03 4.69 0.74 0.734 1.48 1.47 2.24 2.22 0.789 0.793 1.58 1.59 2.39 2.4 0.816 0.814 1.63 1.63 2.47 2.47 1.72 1.72 3.44 3.44 5.15 5.16 2.64 2.65 5.28 5.28 7.93 7.92 1.67 1.67 3.34 3.34 5 5.01 0.797 0.793 1.59 1.59 2.41 2.4 0.728 0.734 1.46 1.47 2.21 2.22 0.645 0.647 1.29 1.29 1.96 1.96 1.38 1.63 1.38 1.63 1.38 3.63 0.843 0.356 0.843 0.356 1.7 0.719 2.82 1.57 4.78 3.5 7.05 5.78 0.799 0.794 1.6 1.59 2.42 2.41 1.83 2.09 1.83 2.09 1.83 4.09 0.99 0.33 1.98 0.66 3 1v2c0.99 0.33 1.98 0.66 3 1v2c0.99 0.33 1.98 0.66 3 1v2c0.99 0.33 1.98 0.66 3 1 1.34 1.66 2.68 3.33 4 5 0.804 0.639 1.61 1.28 2.44 1.94 2.97 2.39 5.13 5.14 7.56 8.06 1.66 1.34 3.33 2.67 5 4 1.33 1.67 2.67 3.33 4 5 0.825 0.66 1.65 1.32 2.5 2 2.5 2 2.5 2 4.44 4.44 2.05 2.72 2.05 2.72 5.06 5.06 2.8 2.33 4.75 4.67 7 7.5 0.825 0.66 1.65 1.32 2.5 2 2.62 2.1 4.43 4.37 6.5 7 0.99 0.66 1.98 1.32 3 2v2c0.99 0.33 1.98 0.66 3 1v2c0.99 0.33 1.98 0.66 3 1 1.34 1.66 2.68 3.33 4 5 1.65 1.36 3.31 2.69 5 4 2.31 2.13 2.31 2.13 4 4v2c0.99 0.33 1.98 0.66 3 1v2c0.99 0.33 1.98 0.66 3 1v2c0.99 0.33 1.98 0.66 3 1 1.34 1.66 2.67 3.33 4 5 1.06 0.918 2.15 1.81 3.25 2.69 0.908 0.763 1.82 1.53 2.75 2.31v2c0.99 0.33 1.98 0.66 3 1v2c0.99 0.33 1.98 0.66 3 1v2c0.99 0.33 1.98 0.66 3 1 1.34 1.66 2.68 3.33 4 5 1.65 1.36 3.31 2.69 5 4 2.31 2.13 2.31 2.13 4 4v2c0.99 0.33 1.98 0.66 3 1v2c0.99 0.33 1.98 0.66 3 1v2c0.99 0.33 1.98 0.66 3 1v2c0.99 0.33 1.98 0.66 3 1 1.35 1.65 2.69 3.32 4 5 0.99 0.66 1.98 1.32 3 2v2c0.99 0.33 1.98 0.66 3 1v2c0.99 0.33 1.98 0.66 3 1v2c0.99 0.33 1.98 0.66 3 1v2c0.99 0.33 1.98 0.66 3 1v2c0.897 0.402 0.897 0.402 1.81 0.812 2.19 1.19 3.6 2.28 5.19 4.19v2c0.99 0.33 1.98 0.66 3 1v2c0.99 0.33 1.98 0.66 3 1v2c0.99 0.33 1.98 0.66 3 1v2c0.99 0.33 1.98 0.66 3 1v2c0.99 0.33 1.98 0.66 3 1 1.34 1.66 2.67 3.33 4 5 1.06 0.918 2.15 1.81 3.25 2.69 0.908 0.763 1.82 1.53 2.75 2.31v2c0.99 0.33 1.98 0.66 3 1v2c0.99 0.33 1.98 0.66 3 1v2c0.99 0.33 1.98 0.66 3 1v2c0.99 0.33 1.98 0.66 3 1 0.536 0.701 1.07 1.4 1.62 2.12 2.18 2.64 4.16 4.34 6.88 6.38 3.39 2.55 5.97 5.06 8.5 8.5 0.66 0.33 1.32 0.66 2 1 0.75 1.88 0.75 1.88 1 4-0.66 0.99-1.32 1.98-2 3h-2c-0.33 0.99-0.66 1.98-1 3-1.65 1.36-3.31 2.69-5 4-0.33 0.66-0.66 1.32-1 2h-2c-0.66 1.32-1.32 2.64-2 4h-2c-0.33 0.99-0.66 1.98-1 3h-2c-0.33 0.99-0.66 1.98-1 3h-2c-0.33 0.99-0.66 1.98-1 3h-2c-0.33 0.99-0.66 1.98-1 3h-2c-0.227 0.536-0.454 1.07-0.688 1.62-2.88 5.21-6.66 8.77-11.3 12.4-1.68 1.66-3.34 3.32-5 5-0.909 0.897-1.82 1.79-2.75 2.72-0.927 0.918-1.85 1.84-2.81 2.78-0.929 0.918-1.86 1.84-2.82 2.78-2.38 2.47-4.49 5.04-6.62 7.72-0.804 0.639-1.61 1.28-2.44 1.94-2.14 1.72-3.57 3.2-5.25 5.31-0.763 0.908-1.53 1.82-2.31 2.75h-2c-0.33 0.99-0.66 1.98-1 3h-2c-0.33 0.99-0.66 1.98-1 3-1.66 1.34-3.33 2.68-5 4-0.66 0.825-1.32 1.65-2 2.5-2.1 2.62-4.37 4.43-7 6.5-0.66 0.99-1.32 1.98-2 3h-2c-0.33 0.99-0.66 1.98-1 3h-2c-0.33 0.99-0.66 1.98-1 3-1.66 1.34-3.33 2.68-5 4-1.36 1.65-2.69 3.31-4 5-2.13 2.31-2.13 2.31-4 4h-2c-0.33 0.99-0.66 1.98-1 3h-2c-0.33 0.99-0.66 1.98-1 3-1.66 1.34-3.33 2.68-5 4-0.66 0.825-1.32 1.65-2 2.5-2.1 2.62-4.37 4.43-7 6.5-0.66 0.99-1.32 1.98-2 3h-2c-0.33 0.99-0.66 1.98-1 3h-2c-0.33 0.99-0.66 1.98-1 3h-2c-0.33 0.99-0.66 1.98-1 3-1.66 1.34-3.33 2.67-5 4-0.918 1.06-1.81 2.15-2.69 3.25-0.763 0.908-1.53 1.82-2.31 2.75h-2c-0.33 0.99-0.66 1.98-1 3h-2c-0.33 0.99-0.66 1.98-1 3-1.44 1.69-1.44 1.69-3 3h-2c-0.33 0.99-0.66 1.98-1 3-1.94 2.19-1.94 2.19-4 4h-2c-0.33 0.99-0.66 1.98-1 3h-2c-0.33 0.99-0.66 1.98-1 3h-2c-0.33 0.99-0.66 1.98-1 3h-2c-0.33 0.99-0.66 1.98-1 3h-2c-0.33 0.99-0.66 1.98-1 3-1.66 1.34-3.33 2.67-5 4-0.918 1.06-1.81 2.15-2.69 3.25-0.763 0.908-1.53 1.82-2.31 2.75h-2c-0.33 0.99-0.66 1.98-1 3h-2c-0.33 0.99-0.66 1.98-1 3h-2c-0.394 0.883-0.394 0.883-0.797 1.78-1.26 2.32-2.58 3.83-4.46 5.68-0.661 0.658-1.32 1.32-2 1.99-0.715 0.701-1.43 1.4-2.17 2.12-1.11 1.1-1.11 1.1-2.24 2.22-2.36 2.34-4.73 4.68-7.09 7.01-2.35 2.32-4.7 4.65-7.05 6.98-1.46 1.45-2.92 2.89-4.39 4.33-3.22 3.19-6.29 6.39-9.18 9.87-1.3 1.49-1.3 1.49-2.63 3h-2c-0.33 0.99-0.66 1.98-1 3-1.44 1.69-1.44 1.69-3 3h-2v2c-1.62 1.71-3.3 3.37-5 5-0.846 0.846-1.69 1.69-2.56 2.56-0.804 0.804-1.61 1.61-2.44 2.44-1.08 1.14-1.08 1.14-2.19 2.31-1.81 1.69-1.81 1.69-3.81 1.69-0.246 0.571-0.492 1.14-0.746 1.73-1.46 2.65-3.18 4.46-5.32 6.6-0.797 0.799-1.59 1.6-2.41 2.42-0.833 0.825-1.67 1.65-2.52 2.5-0.833 0.84-1.67 1.68-2.52 2.55-1.19 1.19-1.19 1.19-2.41 2.41-0.731 0.729-1.46 1.46-2.21 2.21-1.85 1.59-1.85 1.59-3.85 1.59-0.247 0.619-0.495 1.24-0.75 1.88-1.49 2.53-2.69 2.84-5.25 4.12-0.251 0.555-0.503 1.11-0.762 1.68-1.78 3.33-4.4 5.76-7.05 8.4-0.854 0.857-0.854 0.857-1.73 1.73-1.2 1.2-2.4 2.4-3.61 3.6-1.85 1.84-3.69 3.69-5.53 5.54-1.17 1.17-2.34 2.33-3.51 3.5-0.552 0.556-1.1 1.11-1.67 1.69-3.91 3.86-3.91 3.86-6.14 3.86l-0.617 1.61c-1.98 3.43-4.68 5.95-7.51 8.71-0.582 0.577-1.16 1.15-1.76 1.75-3.74 3.68-7.57 7.23-11.6 10.6-1.74 1.49-1.74 1.49-3.49 4.37h-2v2c-1.88 2.12-1.88 2.12-4 4h-2v2c-1.1 1.14-2.22 2.27-3.36 3.38-2.04 2.02-4.01 4.08-5.96 6.19l-2.11 2.25c-1.96 2.28-1.96 2.28-1.57 6.18 1.9 2.14 1.9 2.14 3.48 3.55 1.62 1.54 3.03 3.17 4.47 4.88 4.5 5.18 9.37 9.98 14.2 14.8 1.69 1.67 3.37 3.34 5.06 5.02 4.78 4.76 9.57 9.5 14.4 14.3 2.94 2.92 5.88 5.84 8.82 8.76 1.12 1.11 2.24 2.22 3.36 3.33 1.56 1.54 3.11 3.08 4.66 4.63 0.885 0.877 1.77 1.75 2.68 2.66 1.89 2.12 1.89 2.12 1.89 4.12 0.557 0.227 1.11 0.454 1.69 0.688 2.97 1.69 5.03 3.78 7.31 6.31v2c0.598 0.268 1.2 0.536 1.81 0.812 2.19 1.19 3.6 2.28 5.19 4.19v2c0.99 0.33 1.98 0.66 3 1v2c0.99 0.33 1.98 0.66 3 1v2c0.99 0.33 1.98 0.66 3 1 1.34 1.66 2.68 3.33 4 5 1.65 1.36 3.31 2.69 5 4 2.31 2.13 2.31 2.13 4 4v2c0.99 0.33 1.98 0.66 3 1v2c0.99 0.33 1.98 0.66 3 1 1.69 1.44 1.69 1.44 3 3v2c0.99 0.33 1.98 0.66 3 1 2.19 1.94 2.19 1.94 4 4v2c0.99 0.33 1.98 0.66 3 1v2c0.99 0.33 1.98 0.66 3 1v2c0.99 0.33 1.98 0.66 3 1v2c0.99 0.33 1.98 0.66 3 1v2c0.99 0.33 1.98 0.66 3 1v2c0.579 0.254 1.16 0.508 1.75 0.77 2.5 1.37 4.17 2.9 6.18 4.91 0.771 0.766 1.54 1.53 2.34 2.32 0.837 0.841 1.67 1.68 2.53 2.55 1.33 1.33 1.33 1.33 2.69 2.68 2.43 2.42 4.86 4.85 7.28 7.28 2.54 2.54 5.08 5.08 7.62 7.62 4.26 4.26 8.52 8.52 12.8 12.8 4.93 4.94 9.86 9.87 14.8 14.8 4.24 4.23 8.47 8.46 12.7 12.7 2.53 2.53 5.06 5.06 7.59 7.59 2.82 2.81 5.63 5.63 8.44 8.45 0.845 0.841 1.69 1.68 2.56 2.55 1.14 1.15 1.14 1.15 2.3 2.32 0.666 0.667 1.33 1.33 2.02 2.02 1.41 1.66 1.41 1.66 1.41 3.66 0.99 0.33 1.98 0.66 3 1v2c0.99 0.33 1.98 0.66 3 1v2c0.99 0.33 1.98 0.66 3 1v2c0.99 0.33 1.98 0.66 3 1v2c0.99 0.33 1.98 0.66 3 1 2.19 1.94 2.19 1.94 4 4v2c0.99 0.33 1.98 0.66 3 1v2c0.99 0.33 1.98 0.66 3 1v2c0.99 0.33 1.98 0.66 3 1v2c0.99 0.33 1.98 0.66 3 1v2c0.99 0.33 1.98 0.66 3 1 2.19 1.94 2.19 1.94 4 4v2c0.99 0.33 1.98 0.66 3 1v2c0.99 0.33 1.98 0.66 3 1v2c0.99 0.33 1.98 0.66 3 1v2c0.99 0.33 1.98 0.66 3 1v2c0.878 0.389 0.878 0.389 1.77 0.786 2.39 1.3 3.95 2.7 5.86 4.63 0.695 0.698 1.39 1.4 2.1 2.12 0.742 0.755 1.48 1.51 2.25 2.29 1.16 1.17 1.16 1.17 2.35 2.36 2.48 2.5 4.95 5 7.42 7.5 2.46 2.48 4.91 4.97 7.38 7.45 1.53 1.54 3.06 3.09 4.58 4.63 3.31 3.34 6.63 6.58 10.2 9.64 4.96 4.27 9.53 8.9 14.1 13.5 0.943 0.945 1.89 1.89 2.83 2.83 2.46 2.46 4.92 4.93 7.37 7.4 2.5 2.51 5 5.02 7.5 7.52 4.4 4.41 8.79 8.82 13.2 13.2 1.42 1.43 2.86 2.83 4.33 4.21 1.73 1.86 1.73 1.86 1.73 3.86h2c1.41 1.43 1.41 1.43 3.05 3.43 4.12 4.84 8.55 9.29 13.1 13.8 0.785 0.781 1.57 1.56 2.38 2.37 1.51 1.5 3.01 2.99 4.52 4.48 1.63 1.62 3.24 3.25 4.84 4.89 2.15 2.22 2.15 2.22 5.13 4.07v2h2c1.18 1.15 2.36 2.31 3.5 3.5 2.19 2.18 4.62 4.06 7.05 5.97 1.72 1.81 1.94 3.13 2.45 5.53-28.4 0.151-56.8 0.296-85.2 0.433-3.36 0.0163-6.72 0.0326-10.1 0.0489-0.669 0.00325-1.34 0.00651-2.03 0.00986-10.8 0.0526-21.6 0.109-32.4 0.167-11.1 0.0594-22.2 0.115-33.3 0.166-6.23 0.0291-12.5 0.06-18.7 0.0955-5.87 0.0334-11.7 0.0617-17.6 0.0862-2.14 0.00982-4.29 0.0215-6.43 0.0351-11.8 0.0743-23.5-0.157-35.3-1.04h-2c-3.37-1.36-5.45-3.26-7.94-5.88-2.15-2.22-4.19-4.22-6.62-6.12-4.3-3.53-8.66-7.66-10.4-13-0.99-0.33-1.98-0.66-3-1v-2c-0.577-0.227-1.15-0.454-1.75-0.688-2.83-1.65-4.23-3.75-6.25-6.31-0.763-0.598-1.53-1.2-2.31-1.81-2.38-1.94-4.15-3.8-6.12-6.12-2.11-2.47-4.05-4.47-6.56-6.56-2.35-1.96-4.11-3.7-6.06-6-3.35-3.93-6.92-7.6-10.6-11.2-0.551-0.555-1.1-1.11-1.67-1.68-3.09-3.08-6.28-5.86-9.71-8.57-1.35-1.65-2.69-3.32-4-5-2.66-2.8-5.41-5.36-8.38-7.81-2.49-2.1-4.64-4.28-6.73-6.77-5.15-5.96-10.8-11.4-16.5-16.9-0.826-0.815-1.65-1.63-2.5-2.47-0.751-0.735-1.5-1.47-2.28-2.23-1.63-1.84-1.63-1.84-1.63-3.84-0.959-0.402-0.959-0.402-1.94-0.812-2.06-1.19-2.06-1.19-3.06-4.19-0.578-0.268-1.15-0.536-1.75-0.812-3.25-1.71-4.98-4.34-7.25-7.19-0.982-1.02-1.98-2.02-3-3-5-5-5-5-6.56-6.69-1.36-1.54-1.36-1.54-3.44-1.31-1.4-1.42-1.4-1.42-3.04-3.41-4.19-4.93-8.73-9.43-13.3-14-1.61-1.59-3.23-3.18-4.84-4.77-0.704-0.693-1.41-1.39-2.13-2.1-1.65-1.75-1.65-1.75-2.65-3.75-0.66-0.33-1.32-0.66-2-1v-2c-0.536-0.227-1.07-0.454-1.62-0.688-3.2-1.77-5.67-3.85-8.38-6.31v-2c-1.29-1.38-2.63-2.71-4-4-0.468-0.477-0.936-0.954-1.42-1.45-1.63-1.6-3.33-3.04-5.08-4.49-2.58-2.19-4.47-4.36-6.5-7.06-1.79-1.59-3.62-3.12-5.48-4.63-1.52-1.37-1.52-1.37-2.52-3.37-3.13-3.31-6.42-6.19-10-9-0.66-0.66-1.32-1.32-2-2-0.784-0.763-1.57-1.53-2.38-2.31-2.4-2.46-4.48-5.01-6.62-7.69-1.65-1.69-3.31-3.36-5-5-6-6-6-6-8.44-8.56-2.29-2.43-2.29-2.43-4.52-3.36-2.4-1.27-3.64-2.67-5.36-4.77-2.92-3.47-6-6.65-9.3-9.77-1.38-1.54-1.38-1.54-2.38-4.54-0.639-0.309-1.28-0.619-1.94-0.938-2.56-1.32-2.8-2.54-4.06-5.06-1.33-0.683-2.66-1.35-4-2-0.33-0.99-0.66-1.98-1-3h-3c-0.247-0.598-0.495-1.2-0.75-1.81-1.43-2.5-2.9-3.57-5.25-5.19-0.66-0.66-1.32-1.32-2-2-1.84-1.53-3.69-3.05-5.54-4.56-0.482-0.474-0.964-0.949-1.46-1.44v-2c-0.577-0.227-1.15-0.454-1.75-0.688-2.83-1.65-4.23-3.75-6.25-6.31-1.66-1.34-3.33-2.67-5-4-1.03-1.31-2.04-2.64-3-4-0.98-1.02-1.98-2.02-3-3-0.66-0.66-1.32-1.32-2-2-0.66-0.33-1.32-0.66-2-1v-2c-0.99-0.33-1.98-0.66-3-1-1.27-1.46-2.53-2.93-3.73-4.44-1.37-1.74-1.37-1.74-3.59-3.81-1.69-1.75-1.69-1.75-1.69-3.75-0.598-0.248-1.2-0.495-1.81-0.75-2.5-1.43-3.53-2.94-5.19-5.25-0.99-0.66-1.98-1.32-3-2v-2c-0.66-0.33-1.32-0.66-2-1-0.99-0.66-1.98-1.32-3-2v-2c-0.557-0.206-1.11-0.413-1.69-0.625-2.6-1.54-4.15-3.43-6.02-5.79-1.93-2.37-4.11-4.46-6.3-6.59-0.66-0.66-1.32-1.32-2-2-1.81-1.5-3.62-2.98-5.44-4.46-1.56-1.54-1.56-1.54-2.56-4.54-0.66-0.33-1.32-0.66-2-1-2-1-2-1-3-4h-2v-2c-0.66-0.33-1.32-0.66-2-1-2.12-1.44-2.12-1.44-4-3v-2c-0.66-0.33-1.32-0.66-2-1-2.5-2.32-4.7-4.82-6.88-7.44-2-2.37-4.03-4.42-6.44-6.38-2.69-2.19-2.69-2.19-3.69-4.19-0.66-0.33-1.32-0.66-2-1-0.33-0.99-0.66-1.98-1-3-0.66-0.33-1.32-0.66-2-1-2-1-2-1-3-4-0.577-0.289-1.15-0.578-1.75-0.875-3.04-1.52-4.9-3.67-7.25-6.12-1.1-1.11-2.21-2.21-3.31-3.31-0.887-0.887-1.77-1.77-2.69-2.69-5.12 3.58-9.03 7.14-13 12-1.27 1.15-2.57 2.27-3.88 3.38-2.8 2.38-5.25 4.82-7.62 7.62-2.96 3.5-6.17 6.45-9.66 9.42-3.55 3.05-6.68 6.36-9.66 9.96-2.1 2.48-4.27 4.64-6.75 6.75-5.64 4.79-10.8 10.1-15.9 15.4-1.39 1.4-2.79 2.79-4.2 4.18-1.88 1.9-3.6 3.82-5.29 5.89-2.43 2.88-5.04 5.1-8 7.44-0.66 0.825-1.32 1.65-2 2.5-2 2.5-2 2.5-4.44 4.44-2.98 2.4-5.15 5.11-7.56 8.06-1.65 1.69-3.31 3.36-5 5-0.835 0.897-0.835 0.897-1.69 1.81-1.31 1.19-1.31 1.19-3.31 1.19v2h-2c-0.33 0.99-0.66 1.98-1 3h-2c-0.33 0.99-0.66 1.98-1 3h-2v2c-1.96 1.71-3.96 3.38-6 5 0.348 1.98 0.348 1.98 1 4 0.66 0.33 1.32 0.66 2 1v2h2c1.52 1.79 1.52 1.79 3.25 4.19 2.93 3.88 5.97 6.74 9.75 9.81 1.8 1.99 3.52 4.03 5.25 6.07 1.63 1.8 3.29 3.3 5.18 4.8 0.846 0.701 1.69 1.4 2.56 2.12v2c0.99 0.33 1.98 0.66 3 1v2c0.99 0.33 1.98 0.66 3 1v2h2c1.55 1.57 1.55 1.57 3.31 3.69 3.91 4.58 7.98 8.72 12.6 12.6 3.45 2.98 6.4 6.18 9.34 9.65 2.4 2.74 4.98 5.26 7.59 7.79 1.82 1.87 3.5 3.77 5.19 5.76 3.09 3.56 6.36 6.92 9.71 10.2 0.504 0.499 1.01 0.998 1.53 1.51 2.1 2.07 4.21 4.14 6.31 6.21 1.56 1.53 3.11 3.06 4.66 4.59 0.919 0.902 1.84 1.8 2.78 2.73 2 2.21 2 2.21 2 4.21 0.601 0.262 1.2 0.523 1.82 0.793 2.31 1.28 3.43 2.46 5.05 4.52 2.01 2.46 4.01 4.53 6.5 6.5 0.866 0.722 1.73 1.44 2.62 2.19v2c0.99 0.33 1.98 0.66 3 1 1.69 1.44 1.69 1.44 3 3v2h2c1.48 1.54 1.48 1.54 3.19 3.62 2.85 3.36 5.8 6.21 9.18 9.01 3.27 2.74 6.11 5.71 8.75 9.05 1.84 2.5 1.84 2.5 4.88 4.31v2c0.536 0.206 1.07 0.412 1.62 0.625 3.29 1.91 5.97 4.42 8.38 7.38v2c0.99 0.33 1.98 0.66 3 1v2c0.99 0.33 1.98 0.66 3 1v2c0.99 0.33 1.98 0.66 3 1 3.54 3.25 6.62 6.84 9.67 10.5 1.29 1.58 1.29 1.58 3.33 2.45v2c0.99 0.33 1.98 0.66 3 1v2c0.99 0.33 1.98 0.66 3 1v2c0.99 0.33 1.98 0.66 3 1v2c0.554 0.227 1.11 0.455 1.68 0.689 3 1.69 5.05 3.83 7.46 6.29 0.729 0.737 0.729 0.737 1.47 1.49 1.55 1.57 3.09 3.14 4.64 4.72 7.55 7.8 7.55 7.8 15.5 15.1 6.05 5.16 11.6 10.9 17.2 16.5 2.02 2.02 4.06 4.04 6.09 6.05 1.29 1.28 2.57 2.57 3.86 3.85 0.914 0.903 0.914 0.903 1.85 1.82 4.22 4.24 4.22 4.24 4.22 6.47 0.536 0.206 1.07 0.412 1.62 0.625 3.29 1.91 5.97 4.42 8.38 7.38v2c0.603 0.264 1.21 0.529 1.83 0.801 2.28 1.26 3.34 2.35 4.92 4.39 2.84 3.46 5.97 6.3 9.38 9.19 2.41 2.09 4.62 4.36 6.88 6.62 1.83 1.54 3.68 3.07 5.55 4.57 1.45 1.43 1.45 1.43 2.45 4.43-30.9 0.0912-61.7 0.162-92.6 0.204-3.64 5e-3 -7.28 0.0102-10.9 0.0155-0.725 0.00105-1.45 0.0021-2.2 0.00318-11.7 0.0174-23.5 0.0489-35.2 0.0857-12 0.0374-24.1 0.0596-36.1 0.0677-6.77 5e-3 -13.5 0.017-20.3 0.0466-6.37 0.0271-12.7 0.0355-19.1 0.0295-2.34 0.0011-4.68 0.00908-7.02 0.0244-3.19 0.0199-6.38 0.0151-9.57 0.0042-1.39 0.0175-1.39 0.0175-2.81 0.0353-7.04-0.0654-10.6-2.12-15.8-7.02-1.18-1.24-1.18-1.24-2.38-2.5-0.743-0.722-1.49-1.44-2.25-2.19-1.75-1.81-1.75-1.81-2.75-3.81-1.24-0.464-1.24-0.464-2.5-0.938-1.24-0.526-1.24-0.526-2.5-1.06-0.33-0.99-0.66-1.98-1-3h-2c-1.48-1.5-1.48-1.5-3.19-3.56-2.41-2.85-4.87-5.53-7.56-8.12-1.99-1.95-3.33-3.45-4.75-5.88-1.89-3.06-4.26-4.9-7.07-7.11-0.471-0.44-0.941-0.879-1.43-1.33v-2c-0.99-0.33-1.98-0.66-3-1v-2h-2c-1.69-1.64-3.35-3.31-5-5-0.928-0.722-1.86-1.44-2.81-2.19-3.73-3.02-6.47-6.81-9.36-10.6-1.82-2.4-1.82-2.4-4.83-4.21v-2c-0.99-0.33-1.98-0.66-3-1-1.69-1.65-3.35-3.31-5-5-0.99-0.66-1.98-1.32-3-2v-3h-3c-1.35-1.99-2.69-3.99-4-6-0.99-0.33-1.98-0.66-3-1-1.37-1.64-2.7-3.31-4-5-0.897-0.897-0.897-0.897-1.81-1.81-1.84-1.84-3.51-3.71-5.2-5.69-4.44-5.1-9.2-9.85-14-14.6-0.864-0.868-1.73-1.74-2.62-2.63-3.59-3.59-7.16-7.13-11.1-10.4-2.35-1.97-4.36-4.01-6.34-6.35-3.41-4-7.06-7.71-10.8-11.4-0.623-0.62-1.25-1.24-1.89-1.88-1.95-1.94-3.9-3.87-5.86-5.8-2.59-2.56-5.17-5.13-7.75-7.69-0.581-0.573-1.16-1.15-1.76-1.74-3.86-3.83-7.44-7.83-10.9-12-4.69 1.21-6.22 3.43-8.75 7.27-1.73 2.39-3.93 3.93-6.25 5.73-0.917 1.07-1.81 2.15-2.69 3.25-0.763 0.908-1.53 1.82-2.31 2.75h-2v2c-1.54 1.48-1.54 1.48-3.62 3.19-3.36 2.85-6.21 5.8-9.01 9.19-1.98 2.35-4.16 4.48-6.37 6.62-0.825 0.825-1.65 1.65-2.5 2.5-0.825 0.825-1.65 1.65-2.5 2.5-0.825 0.846-1.65 1.69-2.5 2.56-2.39 2.33-4.89 4.35-7.5 6.44-2.62 2.5-4.96 4.95-7.19 7.81-0.598 0.722-1.2 1.44-1.81 2.19h-2c-0.396 0.905-0.396 0.905-0.801 1.83-1.26 2.28-2.35 3.34-4.39 4.92-3.46 2.84-6.29 5.97-9.19 9.37-2.09 2.42-4.33 4.65-6.62 6.88-1.3 1.36-1.3 1.36-2.63 2.75-2.38 2.25-2.38 2.25-5.38 3.25-0.33 0.66-0.66 1.32-1 2-0.33 0.66-0.66 1.32-1 2-0.99 0.33-1.98 0.66-3 1-0.289 0.578-0.577 1.15-0.875 1.75-1.52 3.04-3.67 4.91-6.12 7.25-0.825 0.825-1.65 1.65-2.5 2.5-0.825 0.825-1.65 1.65-2.5 2.5-0.763 0.784-1.53 1.57-2.31 2.38-2.83 2.77-5.79 5.33-8.82 7.88-1.95 1.71-1.95 1.71-3.48 3.96-0.684 0.884-0.684 0.884-1.38 1.79h-2c-0.402 0.959-0.402 0.959-0.812 1.94-1.19 2.06-1.19 2.06-4.19 3.06-0.33 0.66-0.66 1.32-1 2-0.33 0.66-0.66 1.32-1 2-0.99 0.33-1.98 0.66-3 1-0.289 0.578-0.577 1.15-0.875 1.75-1.52 3.04-3.67 4.91-6.12 7.25-0.763 0.784-1.53 1.57-2.31 2.38-2.13 2.09-4.29 4.01-6.56 5.94-3.58 3.08-6.6 6.42-9.58 10.1-1.54 1.6-1.54 1.6-4.54 2.6-0.289 0.578-0.577 1.15-0.875 1.75-1.56 3.13-3.42 5.05-6.12 7.25-2.81-0.188-2.81-0.188-5-1-0.749-5.34-1.15-10.5-1.13-15.9-0.00227-0.758-0.00453-1.52-0.00687-2.3-0.00629-2.52-0.00551-5.04-0.00469-7.56-3e-3 -1.82-0.0064-3.63-0.0102-5.45-0.00882-4.93-0.0112-9.86-0.0118-14.8-7.14e-4 -3.1-0.00285-6.2-0.0055-9.3-0.00926-10.9-0.0133-21.8-0.0125-32.6 5.95e-4 -10-0.00984-20.1-0.0257-30.1-0.0133-8.68-0.0184-17.4-0.0178-26 2.51e-4 -5.15-0.00235-10.3-0.0132-15.5-0.0407-20.9 0.164-41.7 1.13-62.6 0.0389-0.888 0.0778-1.78 0.118-2.69 0.112-2.49 0.237-4.97 0.368-7.46 0.0327-0.732 0.0654-1.46 0.0991-2.22 0.21-3.62 0.562-6.45 2.53-9.54h2v-2h2v-2c0.928-0.124 0.928-0.124 1.88-0.25 2.31-0.563 2.31-0.563 3.38-2.81 0.248-0.639 0.495-1.28 0.75-1.94h2v-2c1.87-2.12 1.87-2.12 4-4h2c0.248-0.572 0.495-1.14 0.75-1.73 1.44-2.62 3.13-4.41 5.25-6.52 1.05-1.06 1.05-1.06 2.12-2.14 1.88-1.61 1.88-1.61 3.88-1.61 0.402-0.897 0.402-0.897 0.812-1.81 1.19-2.19 2.28-3.6 4.19-5.19h2c0.33-0.99 0.66-1.98 1-3h2c0.33-0.99 0.66-1.98 1-3h2c0.66-1.32 1.32-2.64 2-4h2v-2h2c0.33-0.99 0.66-1.98 1-3 2.82-3.13 5.27-5.14 9-7 0.33-0.99 0.66-1.98 1-3h2c0.371-0.928 0.371-0.928 0.75-1.88 1.49-2.53 2.69-2.84 5.25-4.12 1.27-2.03 1.27-2.03 2-4h2c0.262-0.588 0.524-1.18 0.794-1.78 1.27-2.34 2.61-3.86 4.51-5.71 0.648-0.641 1.3-1.28 1.96-1.94 0.676-0.659 1.35-1.32 2.05-2 0.665-0.655 1.33-1.31 2.01-1.99 1.89-1.86 3.78-3.72 5.67-5.58 2.81-2.77 5.51-5.51 8-8.56 2.42-2.88 5.03-5.12 8-7.44 0.66-0.99 1.32-1.98 2-3h2v-2c1.87-2.12 1.87-2.12 4-4h2c0.66-1.32 1.32-2.64 2-4h2v-2c1.65-1.35 3.32-2.69 5-4 0.33-0.66 0.66-1.32 1-2h2c0.33-0.99 0.66-1.98 1-3 1.64-1.58 1.64-1.58 3.69-3.25 3.44-2.9 6.31-5.93 9.09-9.46 0.607-0.636 0.607-0.636 1.23-1.29h2v-2c1.65-1.35 3.32-2.69 5-4 0.33-0.66 0.66-1.32 1-2h2c0.33-0.99 0.66-1.98 1-3 1.98-1.69 3.98-3.36 6-5 0.33-0.66 0.66-1.32 1-2h2c0.33-0.99 0.66-1.98 1-3 3.87-4.25 8.28-7.94 12.6-11.7 2.4-2.28 4.36-4.69 6.4-7.28 1.18-0.928 1.18-0.928 2.38-1.88 2.18-1.76 3.68-3.3 5.44-5.44 2.73-3.28 5.71-5.96 8.96-8.71 3.56-3.16 6.82-6.61 10.1-10 2.1-1.94 2.1-1.94 4.1-1.94 0.66-1.32 1.32-2.64 2-4h2v-2h2c0.66-1.32 1.32-2.64 2-4h2c0.371-0.928 0.371-0.928 0.75-1.88 1.48-2.51 2.69-2.89 5.25-4.12 0.33-0.99 0.66-1.98 1-3h2c0.371-0.928 0.371-0.928 0.75-1.88 1.49-2.53 2.69-2.84 5.25-4.12 1.27-2.03 1.27-2.03 2-4h2c0.371-0.928 0.371-0.928 0.75-1.88 1.48-2.51 2.69-2.89 5.25-4.12 0.33-0.99 0.66-1.98 1-3h2c0.245-0.571 0.489-1.14 0.741-1.73 1.48-2.67 3.22-4.44 5.4-6.57 0.824-0.813 1.65-1.63 2.5-2.46 0.862-0.841 1.72-1.68 2.61-2.55 5.04-4.93 9.99-9.82 14.5-15.2 1.62-1.88 3.4-3.48 5.31-5.07 3.13-2.67 6.07-5.43 8.94-8.38 2.48-2.54 4.9-4.92 7.69-7.12 2.5-1.84 2.5-1.84 4.31-4.88h2c0.371-0.928 0.371-0.928 0.75-1.88 1.49-2.53 2.69-2.84 5.25-4.12 1.27-2.03 1.27-2.03 2-4h2v-2c1.61-1.55 1.61-1.55 3.75-3.31 3.17-2.68 5.68-5.43 8.25-8.69h2c0.402-0.897 0.402-0.897 0.812-1.81 1.19-2.19 2.28-3.6 4.19-5.19h2c0.33-0.99 0.66-1.98 1-3h2c0.33-0.99 0.66-1.98 1-3h2c0.33-0.99 0.66-1.98 1-3h2c0.33-0.99 0.66-1.98 1-3h2c0.34-0.804 0.34-0.804 0.688-1.62 2.91-5.26 6.69-8.68 11.3-12.4 0.916-1.07 1.81-2.15 2.69-3.25 0.763-0.908 1.53-1.82 2.31-2.75h2c0.33-0.99 0.66-1.98 1-3h2c0.33-0.99 0.66-1.98 1-3h2c0.33-0.99 0.66-1.98 1-3h2c0.33-0.99 0.66-1.98 1-3 1.66-1.34 3.33-2.67 5-4 0.918-1.06 1.81-2.15 2.69-3.25 0.763-0.908 1.53-1.82 2.31-2.75h2c0.33-0.99 0.66-1.98 1-3h2c0.33-0.99 0.66-1.98 1-3h2c0.33-0.99 0.66-1.98 1-3h2c0.237-0.562 0.474-1.12 0.719-1.7 1.57-2.82 3.5-4.78 5.78-7.05 0.794-0.799 1.59-1.6 2.41-2.42 2.09-1.83 2.09-1.83 4.09-1.83 0.33-0.99 0.66-1.98 1-3h2c0.289-0.598 0.577-1.2 0.875-1.81 1.13-2.19 1.13-2.19 3.12-5.19h2c0.33-0.99 0.66-1.98 1-3h2v-2c0.99-0.66 1.98-1.32 3-2 0.73-2.56 0.73-2.56 1-5-1.98-1.02-1.98-1.02-4-1.81-2.42-1.44-2.76-2.72-4-5.19-2.03-1.27-2.03-1.27-4-2v-3c-0.598-0.124-1.2-0.247-1.81-0.375-2.19-0.625-2.19-0.625-5.19-2.62v-2c-0.99-0.33-1.98-0.66-3-1-1.19-2.06-1.19-2.06-2-4h-2v-2c-0.66-0.33-1.32-0.66-2-1-3.29-2.26-5.19-4.38-7-8-0.99-0.33-1.98-0.66-3-1-0.33-0.66-0.66-1.32-1-2-0.979-1.02-1.98-2.02-3-3-2-2-2-2-3-4-0.99-0.33-1.98-0.66-3-1-1.69-1.44-1.69-1.44-3-3v-2c-0.66-0.33-1.32-0.66-2-1-2.74-1.88-4.11-3.17-6-6-0.681-0.681-1.36-1.36-2.06-2.06-1.94-1.94-1.94-1.94-2.94-3.94h-2c-0.247-0.784-0.495-1.57-0.75-2.38-1.46-3.06-2.3-3.24-5.25-4.62-0.289-0.598-0.577-1.2-0.875-1.81-1.71-3.32-4.14-4.95-7.12-7.19h-2c-0.66-0.99-1.32-1.98-2-3-0.846-0.846-1.69-1.69-2.56-2.56-2.44-2.44-2.44-2.44-3.44-4.44-1.62-1.77-2.84-2.92-5-4v-2c-0.99-0.33-1.98-0.66-3-1v-2c-1.69-1.7-1.69-1.7-3.81-3.44-5.46-4.6-5.46-4.6-7.19-6.56v-2c-0.66-0.33-1.32-0.66-2-1-0.99-0.66-1.98-1.32-3-2v-2c-3.63 1.87-3.63 1.87-6 5h-2c-0.247 0.619-0.495 1.24-0.75 1.88-1.49 2.53-2.69 2.84-5.25 4.12-1.27 2.03-1.27 2.03-2 4h-2c-0.66 1.32-1.32 2.64-2 4h-2c-0.268 0.639-0.536 1.28-0.812 1.94-1.19 2.06-1.19 2.06-4.19 3.06v3c-1.68 1.82-1.68 1.82-3.88 3.69-1.08 0.934-1.08 0.934-2.18 1.89-1.95 1.43-1.95 1.43-3.95 1.43-0.289 0.639-0.577 1.28-0.875 1.94-1.12 2.06-1.12 2.06-3.12 3.06-0.289 0.66-0.577 1.32-0.875 2-0.371 0.66-0.743 1.32-1.12 2-1.33 0.333-2.67 0.667-4 1-0.699 1.32-1.37 2.65-2 4-0.99 0.33-1.98 0.66-3 1-0.33 0.66-0.66 1.32-1 2-0.33 0.66-0.66 1.32-1 2-0.99 0.33-1.98 0.66-3 1-0.671 1.33-1.34 2.66-2 4-1.61 1.8-3.29 3.55-5 5.25-0.887 0.892-1.77 1.78-2.69 2.7-2.31 2.05-2.31 2.05-4.31 2.05-0.34 0.835-0.34 0.835-0.688 1.69-2.27 4-4.93 6.85-9.31 8.31-0.701 1.32-1.36 2.65-2 4-1.5 1.74-1.5 1.74-3.27 3.5-0.664 0.664-1.33 1.33-2.01 2.01-0.718 0.707-1.44 1.41-2.17 2.14-0.74 0.737-1.48 1.47-2.24 2.23-2.37 2.36-4.74 4.7-7.11 7.05-1.59 1.58-3.17 3.15-4.76 4.73-2.92 2.9-5.84 5.81-8.77 8.7-2.89 2.87-5.78 5.74-8.66 8.63-9.84 9.84-9.84 9.84-11.5 11.5-1.44 1.45-2.85 2.92-4.26 4.39-2.28 2.16-2.28 2.16-5.28 3.16-0.464 0.959-0.464 0.959-0.938 1.94-1.32 2.56-2.54 2.8-5.06 4.06-0.683 1.33-1.35 2.66-2 4-0.99 0.33-1.98 0.66-3 1-0.289 0.577-0.577 1.15-0.875 1.75-1.52 3.04-3.67 4.91-6.12 7.25-0.825 0.825-1.65 1.65-2.5 2.5-0.825 0.825-1.65 1.65-2.5 2.5-0.846 0.887-1.69 1.77-2.56 2.69-2.13 2.02-3.75 3.22-6.44 4.31v3c-1.68 1.82-1.68 1.82-3.88 3.69-0.719 0.623-1.44 1.25-2.18 1.89-1.95 1.43-1.95 1.43-3.95 1.43-0.371 0.835-0.371 0.835-0.75 1.69-2.93 5.42-7.26 9.74-12.2 13.3h-2c-0.0941 0.593-0.188 1.19-0.285 1.8-0.874 2.69-1.98 3.67-4.15 5.45-0.617 0.521-1.23 1.04-1.87 1.58-1.69 1.17-1.69 1.17-3.69 1.17-0.0902 0.593-0.18 1.19-0.273 1.8-0.912 2.76-2.09 3.65-4.35 5.45-2.93 2.44-5.48 4.9-7.94 7.81-2.69 3.18-5.54 5.8-8.75 8.44-2.35 2.08-4.29 4.43-6.29 6.84-2 2.36-4.19 4.5-6.4 6.66-0.846 0.887-1.69 1.77-2.56 2.69-2.44 2.31-2.44 2.31-4.62 3.38-2.35 1.22-2.68 2.61-3.81 4.94-0.99 0.33-1.98 0.66-3 1-0.702 1.32-1.37 2.65-2 4-1.5 1.75-1.5 1.75-3 3h-2c-0.371 0.866-0.371 0.866-0.75 1.75-1.43 2.58-3.03 4.31-5.25 6.25h-2c-0.402 0.959-0.402 0.959-0.812 1.94-1.19 2.06-1.19 2.06-4.19 3.06-0.278 0.562-0.557 1.12-0.844 1.7-1.63 3.24-4.1 5.53-6.66 8.05-0.499 0.507-0.998 1.01-1.51 1.54-3.73 3.71-3.73 3.71-5.99 3.71-0.402 0.959-0.402 0.959-0.812 1.94-1.19 2.06-1.19 2.06-4.19 3.06-0.402 0.835-0.402 0.835-0.812 1.69-1.72 3.35-4.27 5.94-7.19 8.31h-2c-0.402 0.959-0.402 0.959-0.812 1.94-1.19 2.06-1.19 2.06-4.19 3.06-0.99-0.33-1.98-0.66-3-1-1.16-6.39-1.36-12.7-1.55-19.1-0.0209-0.679-0.0419-1.36-0.0634-2.06-0.646-21.6-0.537-43.2-0.511-64.9 0.00422-3.6 0.00716-7.2 0.00988-10.8 0.027-31.6 0.1-63.2 0.384-94.9 0.0332-3.71 0.0601-7.42 0.0814-11.1 0.0255-4.32 0.0655-8.63 0.117-12.9 0.0165-1.56 0.0282-3.12 0.0346-4.68 0.0466-10.3 0.102-19.7 7.5-27.5 0.825-0.887 1.65-1.77 2.5-2.69 2.19-2.03 3.89-3.01 6.5-4.31 0.33-0.99 0.66-1.98 1-3 1.64-1.58 1.64-1.58 3.69-3.25 2.69-2.28 5.08-4.52 7.31-7.25 2.75-3.34 5.83-6.08 9.12-8.88 2.42-2.09 4.65-4.33 6.88-6.62 1.11-1.08 1.11-1.08 2.25-2.19 3.4-3.48 6.57-7.13 9.76-10.8 0.656-0.664 1.31-1.33 1.99-2.01h2c0.262-0.599 0.523-1.2 0.793-1.82 1.28-2.31 2.47-3.48 4.52-5.12 3.11-2.51 5.88-5.22 8.69-8.06 1.17-1.16 2.34-2.32 3.52-3.48 1.24-1.24 2.49-2.47 3.73-3.71 0.955-0.943 0.955-0.943 1.93-1.9 0.606-0.603 1.21-1.21 1.84-1.83 0.549-0.544 1.1-1.09 1.67-1.65 1.43-1.42 1.43-1.42 2.32-3.43h2c0.66-1.32 1.32-2.64 2-4h2c0.33-0.99 0.66-1.98 1-3h2c0.248-0.619 0.495-1.24 0.75-1.88 1.48-2.51 2.69-2.89 5.25-4.12 0.33-0.99 0.66-1.98 1-3 1.78-1.72 1.78-1.72 3.94-3.5 2.57-2.13 4.19-3.68 6.06-6.5h2c0.248-0.619 0.495-1.24 0.75-1.88 1.49-2.53 2.69-2.84 5.25-4.12 1.27-2.03 1.27-2.03 2-4h2v-2h2c0.33-0.99 0.66-1.98 1-3 2.82-3.13 5.27-5.14 9-7 0.33-0.99 0.66-1.98 1-3h2c0.34-0.866 0.34-0.866 0.688-1.75 1.66-2.84 3.74-4.2 6.31-6.25 0.958-1.09 1.89-2.19 2.81-3.31 2.83-3.4 5.96-6.21 9.32-9.08 7.14-6.14 13.3-13.5 19.3-20.7 0.846-0.949 1.69-1.9 2.56-2.88h2c0.33-0.99 0.66-1.98 1-3 1.94-2.19 1.94-2.19 4-4h2c-1.83-5.49-3.57-7.78-8.43-10.9-1.98-1.42-2.66-2.9-3.57-5.12-0.99-0.66-1.98-1.32-3-2-0.309-0.681-0.619-1.36-0.938-2.06-0.351-0.639-0.701-1.28-1.06-1.94-0.922-0.195-0.922-0.195-1.86-0.395-2.77-0.786-3.61-1.99-5.39-4.23-2.42-2.91-4.86-5.44-7.75-7.88-3.49-2.95-6.39-6.16-9.33-9.64-1.59-1.76-3.21-3.24-5.05-4.73-2.62-2.12-2.62-2.12-3.62-4.12-0.99-0.33-1.98-0.66-3-1-0.667-1.33-1.33-2.67-2-4-0.99-0.33-1.98-0.66-3-1-0.667-1.33-1.33-2.67-2-4-0.99-0.33-1.98-0.66-3-1-0.309-0.66-0.619-1.32-0.938-2-0.351-0.66-0.701-1.32-1.06-2-0.619-0.144-1.24-0.289-1.88-0.438-3.16-0.837-4.17-3.01-6.12-5.56-1.65-1.36-3.31-2.69-5-4-2.31-2.12-2.31-2.12-4-4v-2c-0.99-0.33-1.98-0.66-3-1-0.33-0.66-0.66-1.32-1-2-0.66-0.33-1.32-0.66-2-1-0.433-0.959-0.433-0.959-0.875-1.94-0.953-2.21-0.953-2.21-3.12-3.06-2-1-2-1-2.88-2.81-1.71-3.32-4.14-4.95-7.13-7.19h-2c-1.36-1.64-2.69-3.32-4-5-0.887-0.866-1.77-1.73-2.69-2.62-2.31-2.38-2.31-2.38-3.31-5.38h-3c-1.04-1.64-2.03-3.31-3-5-0.97-1.29-1.97-2.56-3-3.81-0.495-0.605-0.99-1.21-1.5-1.83-1.53-1.69-1.53-1.69-4.5-1.36-1.56-2.38-1.56-2.38-3-5-1.88-2.1-1.88-2.1-4.31-3.12-3.21-2.24-4.42-4.54-6.36-7.88-2-3.02-4.45-4.82-7.33-7-1.66-1.66-3.14-3.33-4.64-5.13-3.51-4.11-7.28-7.93-11.1-11.7-0.672-0.675-1.34-1.35-2.04-2.05-0.965-0.963-0.965-0.963-1.95-1.95-0.87-0.868-0.87-0.868-1.76-1.75-1.48-1.48-1.48-1.48-3.51-2.38v-2h-2c-1.63-1.74-3.08-3.6-4.56-5.47-0.474-0.505-0.949-1.01-1.44-1.53h-2c-1-1.67-2-3.33-3-5-2.51-2.78-4.88-4.92-8-7-4.42-2.95-8.08-6.54-11-11v-2c-0.598-0.0825-1.2-0.165-1.81-0.25-2.83-0.969-3.53-2.31-5.19-4.75-0.997-1-2-2-3-3-0.967-1.14-1.93-2.28-2.88-3.44-2.47-2.91-5.04-5.29-8.12-7.56 0.33-0.99 0.66-1.98 1-3 44.6-0.968 89.3-1.37 134-1.5z" fill="#FBFCFE"/>
<path transform="translate(1128,1291)" d="m0 0c6.91 2.92 11 7.94 15 14-3.37-1.45-5.52-3.31-8.06-5.94-0.672-0.69-1.34-1.38-2.04-2.09-0.628-0.651-1.26-1.3-1.9-1.97-0.576-0.558-1.15-1.12-1.75-1.69-1.25-1.31-1.25-1.31-1.25-2.31z" fill="#000001"/>
<path transform="translate(291,1302)" d="m0 0c1.49 0.99 1.49 0.99 3 2h-3v-2z" fill="#000100"/>
<path transform="translate(732,893)" d="m0 0 2 2h-2v-2z" fill="#000002"/>
<path transform="translate(291,822)" d="m0 0c0.66 0.66 1.32 1.32 2 2h-2v-2z" fill="#000100"/>
<path transform="translate(644,552)" d="m0 0 2 2h-2v-2z" fill="#000002"/>
<path transform="translate(635,1290)" d="m0 0 2 1z" fill="#000002"/>
<path transform="translate(641,550)" d="m0 0 2 1z" fill="#000002"/>
</svg>
