<?xml version="1.0" encoding="UTF-8"?>
<svg version="1.1" viewBox="0 0 1600 784" width="1280" height="1280" xmlns="http://www.w3.org/2000/svg">
<path transform="translate(240,250)" d="m0 0c8.22-0.139 16.4-0.246 24.7-0.311 3.82-0.0312 7.64-0.0736 11.5-0.142 3.69-0.0655 7.38-0.101 11.1-0.117 1.4-0.011 2.81-0.0326 4.21-0.0651 12.4-0.275 12.4-0.275 17 3.55 2.58 2.64 2.58 2.64 2.58 5.09 0.639 0.268 1.28 0.536 1.94 0.812 2.06 1.19 2.06 1.19 3.06 4.19l4 2c0.495 1.49 0.495 1.49 1 3 0.557 0.268 1.11 0.536 1.69 0.812 3.35 1.72 5.94 4.27 8.31 7.19v2c0.883 0.401 0.883 0.401 1.78 0.81 2.25 1.21 3.82 2.48 5.67 4.23 0.657 0.619 1.31 1.24 1.99 1.88 1.06 1.01 1.06 1.01 2.14 2.04 0.748 0.71 1.5 1.42 2.27 2.15 8.77 8.36 17.3 16.9 25.9 25.5 1.72 1.73 3.45 3.45 5.17 5.18 4.48 4.48 8.95 8.97 13.4 13.5 4.59 4.6 9.18 9.2 13.8 13.8 8.97 8.98 17.9 18 26.9 26.9 1.1-0.937 2.21-1.88 3.31-2.81 0.614-0.522 1.23-1.04 1.86-1.58 2.78-2.43 5.39-5.03 7.99-7.66 0.545-0.546 1.09-1.09 1.65-1.66 1.71-1.72 3.42-3.44 5.13-5.16 1.17-1.18 2.34-2.35 3.52-3.53 2.85-2.86 5.7-5.73 8.54-8.59-0.33-0.66-0.66-1.32-1-2 0.66-0.33 1.32-0.66 2-1-0.483-0.413-0.967-0.825-1.46-1.25-5.09-4.39-9.91-8.98-14.6-13.7-0.767-0.767-1.53-1.53-2.32-2.32-2.51-2.51-5.01-5.02-7.52-7.54-1.75-1.75-3.5-3.51-5.26-5.26-4.6-4.6-9.19-9.2-13.8-13.8-4.68-4.69-9.37-9.38-14-14.1-8.79-8.8-17.6-17.6-26.4-26.4-1.08-1.09-2.18-2.16-3.29-3.23-1.29-1.36-1.29-1.36-1.29-2.36 8.21-0.163 16.4-0.287 24.6-0.363 3.81-0.0364 7.62-0.0858 11.4-0.165 3.68-0.0765 7.36-0.118 11-0.136 1.4-0.0129 2.8-0.038 4.2-0.076 12.3-0.321 12.3-0.321 17.3 3.98 1.16 1.23 2.29 2.48 3.38 3.76 1.31 1.24 1.31 1.24 2.65 2.51 2.45 2.43 4.9 4.86 7.35 7.31 0.87 0.858 1.74 1.72 2.64 2.6 1.23 1.23 1.23 1.23 2.49 2.48 0.745 0.741 1.49 1.48 2.26 2.25 1.62 1.86 1.62 1.86 1.62 3.86 0.557 0.227 1.11 0.454 1.69 0.688 2.97 1.69 5.03 3.78 7.31 6.31v2c0.835 0.102 0.835 0.102 1.69 0.207 3.25 1.11 4.91 3.04 7.33 5.48 0.485 0.486 0.97 0.972 1.47 1.47 1.6 1.61 3.19 3.22 4.78 4.84 1.11 1.12 2.22 2.24 3.33 3.35 2.92 2.94 5.84 5.89 8.75 8.84 4.66 4.72 9.34 9.44 14 14.1 1.63 1.65 3.27 3.3 4.9 4.95 0.998 1.01 2 2.02 2.99 3.02 0.872 0.883 1.74 1.77 2.64 2.68 1.95 2.05 1.95 2.05 4.11 3.01-0.33 0.99-0.66 1.98-1 3h-1c-0.237 0.562-0.474 1.12-0.718 1.7-1.58 2.82-3.5 4.75-5.79 7.03-1.36 1.35-1.36 1.35-2.74 2.74-0.473 0.467-0.946 0.934-1.43 1.41-1.42 1.4-2.83 2.81-4.25 4.23-3.78 3.76-7.56 7.46-11.6 10.9-5.98 5.2-11.5 10.9-17.1 16.5-1.21 1.21-2.42 2.42-3.63 3.63-3.16 3.17-6.33 6.34-9.49 9.51-3.21 3.22-6.43 6.45-9.65 9.67-5.19 5.2-10.4 10.4-15.6 15.6-2.25 2.26-4.5 4.51-6.75 6.76-1.93 1.94-3.79 3.9-5.58 5.97-0.512 0.581-1.02 1.16-1.55 1.76-1.33 1.5-1.33 1.5-1.14 3.55 0.589 0.264 1.18 0.527 1.78 0.799 2.31 1.25 3.82 2.56 5.67 4.42 0.664 0.663 1.33 1.33 2.01 2.01 0.718 0.727 1.44 1.45 2.18 2.2 0.765 0.766 1.53 1.53 2.32 2.32 2.53 2.53 5.05 5.08 7.57 7.62 1.76 1.76 3.51 3.52 5.27 5.28 4.15 4.16 8.3 8.33 12.4 12.5 7.86 7.91 15.7 15.8 23.6 23.7 2.59 2.6 5.17 5.2 7.75 7.8 1.58 1.59 3.17 3.18 4.75 4.77 0.718 0.725 1.44 1.45 2.18 2.2 0.664 0.666 1.33 1.33 2.01 2.02 0.574 0.577 1.15 1.15 1.74 1.75 1.73 1.68 1.73 1.68 3.93 3.18 0.589 0.467 1.18 0.934 1.78 1.42v2c0.568 0.241 1.14 0.482 1.72 0.73 2.73 1.52 4.54 3.34 6.71 5.58 1.17 1.2 1.17 1.2 2.37 2.43 0.724 0.745 1.45 1.49 2.2 2.26 1.02 0.981 2.04 1.96 3.06 2.94 1.94 2.06 1.94 2.06 1.94 4.06 0.598 0.289 1.2 0.578 1.81 0.875 2.19 1.13 2.19 1.13 5.19 3.12v3c-8.08 0.163-16.2 0.287-24.2 0.363-3.75 0.0364-7.5 0.0858-11.3 0.165-3.62 0.0765-7.25 0.118-10.9 0.136-1.38 0.0129-2.76 0.038-4.13 0.076-12.1 0.321-12.1 0.321-16.7-3.6-1.28-1.36-2.54-2.74-3.78-4.14-1.72-1.7-3.45-3.4-5.19-5.09-1.44-1.44-2.87-2.88-4.3-4.33-1.55-1.56-3.1-3.12-4.65-4.67-3.85-3.86-7.69-7.73-11.5-11.6-3.26-3.28-6.52-6.55-9.78-9.83-1.51-1.52-3.02-3.04-4.53-4.56-4.63-4.66-9.31-9.2-14.3-13.5-2.94-2.55-5.66-5.33-8.39-8.1-0.542-0.547-1.08-1.09-1.64-1.66-1.01-1.02-2.03-2.04-3.04-3.07-2.2-2.22-4.42-4.44-6.63-6.65-1.17-1.17-2.34-2.34-3.51-3.51l-28.5-28.5c-2.83 1.29-4.91 2.65-7.12 4.84-0.58 0.571-1.16 1.14-1.76 1.73-0.614 0.615-1.23 1.23-1.86 1.86-0.638 0.634-1.28 1.27-1.93 1.92-1.34 1.34-2.69 2.68-4.02 4.02-2.06 2.06-4.12 4.1-6.19 6.15-1.3 1.3-2.61 2.6-3.91 3.91-0.622 0.613-1.24 1.23-1.88 1.86-3.49 3.24-3.49 3.24-4.32 7.71 0.597 0.272 1.19 0.543 1.81 0.823 2.15 1.16 3.54 2.28 5.25 4 0.577 0.576 1.15 1.15 1.75 1.75 0.621 0.63 1.24 1.26 1.88 1.91 0.664 0.665 1.33 1.33 2.01 2.02 2.19 2.2 4.38 4.41 6.57 6.62 1.53 1.53 3.05 3.06 4.58 4.6 4.02 4.04 8.04 8.08 12.1 12.1 6.42 6.46 12.8 12.9 19.3 19.4 2.24 2.25 4.48 4.51 6.72 6.76 1.38 1.39 2.76 2.78 4.15 4.17 0.617 0.624 1.23 1.25 1.87 1.89 3.54 3.55 7.18 6.83 11.1 9.98-3 2-3 2-6 2-1.81 0.0692-3.63 0.144-5.44 0.222-5.59 0.226-11.2 0.387-16.8 0.503-3.38 0.0726-6.75 0.171-10.1 0.331-23.7 1.04-23.7 1.04-30.5-4.06-3.07-2.82-5.59-5.9-7.97-9.31-1.82-2.5-4-4.56-6.23-6.69-1.62-1.63-3.25-3.27-4.87-4.91-1.38-1.39-2.77-2.78-4.15-4.17-1.41-1.42-2.82-2.84-4.23-4.27-4.43-4.45-8.85-8.73-13.7-12.7-1.01-0.991-2.01-1.99-3-3-0.587 0.589-1.17 1.18-1.78 1.78-5.52 5.54-11 11.1-16.6 16.6-2.84 2.84-5.68 5.69-8.51 8.54-2.73 2.74-5.47 5.49-8.21 8.23-1.05 1.05-2.09 2.1-3.14 3.15-1.46 1.47-2.92 2.93-4.38 4.39-0.833 0.835-1.67 1.67-2.52 2.53-1.9 1.78-1.9 1.78-2.9 1.78-0.812-3.57-1.13-6.87-1.15-10.5-0.00638-1.08-0.0128-2.16-0.0193-3.28-0.00111-1.16-0.00223-2.32-0.00337-3.51-0.00333-1.2-0.00666-2.4-0.0101-3.63-0.00506-2.53-0.00741-5.07-0.00725-7.6-0.00219-3.87-0.0204-7.75-0.0393-11.6-0.00293-2.46-0.00492-4.93-0.00586-7.39-0.00719-1.16-0.0144-2.31-0.0218-3.5 0.00308-1.08 0.00615-2.17 0.00932-3.29-0.00143-0.949-0.00285-1.9-0.00432-2.87 0.544-6.1 2.55-9.58 6.85-13.9 0.465-0.469 0.931-0.938 1.41-1.42 1.53-1.54 3.07-3.06 4.61-4.58 1.07-1.07 2.14-2.13 3.21-3.2 2.23-2.23 4.47-4.45 6.72-6.67 2.88-2.85 5.75-5.71 8.62-8.58 2.2-2.2 4.41-4.4 6.62-6.59 1.06-1.05 2.12-2.11 3.18-3.17 1.47-1.47 2.96-2.93 4.44-4.39 1.26-1.25 1.26-1.25 2.55-2.53 2.05-1.78 2.05-1.78 4.05-1.78 0.262-0.599 0.523-1.2 0.793-1.82 1.28-2.31 2.47-3.48 4.52-5.12 3.74-3.09 7.12-6.43 10.5-9.93 0.625-0.642 1.25-1.28 1.89-1.95 0.581-0.605 1.16-1.21 1.76-1.83 1.55-1.36 1.55-1.36 3.55-1.36 0.33-0.99 0.66-1.98 1-3 1.58-1.57 1.58-1.57 3.59-3.23 4.17-3.54 8.09-7.25 12-11.1 1.02-1 1.02-1 2.05-2.03 1.41-1.4 2.82-2.8 4.23-4.2 1.44-1.43 2.89-2.86 4.35-4.29 2.11-2.07 4.21-4.15 6.31-6.24 0.653-0.635 1.31-1.27 1.98-1.93 0.595-0.598 1.19-1.2 1.8-1.81 0.527-0.521 1.05-1.04 1.6-1.58 1.5-1.83 1.5-1.83 1.12-5.61-0.802-0.327-0.802-0.327-1.62-0.66-3.23-1.82-5.77-4.25-8.44-6.78-0.846-0.792-0.846-0.792-1.71-1.6-12.3-11.5-12.3-11.5-16.2-16v-2c-6.49 2.48-10.6 7.33-15.4 12.2-1.63 1.67-3.26 3.35-4.9 5.02-0.716 0.74-1.43 1.48-2.17 2.24-1.99 1.94-3.99 3.73-6.09 5.53-5.21 4.53-10 9.43-14.9 14.3-1.71 1.72-3.42 3.44-5.13 5.16-3.62 3.63-7.24 7.27-10.9 10.9-4.22 4.24-8.44 8.48-12.7 12.7-1.69 1.7-3.37 3.39-5.06 5.09-1.03 1.03-2.05 2.06-3.08 3.09-0.897 0.903-1.79 1.81-2.72 2.74-2.04 1.93-2.04 1.93-3.04 1.93-0.823-3.6-1.13-6.94-1.15-10.6-0.00638-1.1-0.0128-2.21-0.0193-3.35-0.00111-1.18-0.00223-2.37-0.00337-3.59-0.00333-1.22-0.00666-2.45-0.0101-3.71-0.00506-2.59-0.00741-5.17-0.00725-7.76-0.00219-3.96-0.0204-7.91-0.0393-11.9-0.00293-2.51-0.00492-5.03-0.00586-7.54-0.00719-1.18-0.0144-2.37-0.0218-3.59 0.00308-1.1 0.00615-2.21 0.00932-3.35-0.00143-0.969-0.00285-1.94-0.00432-2.94 0.418-4.55 1.46-7.02 4.93-10 0.531-0.41 1.06-0.82 1.61-1.24 1.94-1.65 3.5-3.44 5.14-5.38 2.76-3.25 5.67-5.94 8.95-8.64 1.86-1.57 1.86-1.57 4.05-4.36 2.66-3.18 5.51-5.72 8.65-8.41 4.32-3.73 8-7.87 11.6-12.3 0.44-0.447 0.879-0.895 1.33-1.36h2v-2h2c-0.33-0.99-0.66-1.98-1-3l1-1c-7.25-7.27-14.5-14.5-21.7-21.8-3.37-3.37-6.73-6.75-10.1-10.1-3.25-3.26-6.49-6.51-9.75-9.76-1.24-1.24-2.48-2.49-3.72-3.73-1.73-1.74-3.47-3.48-5.21-5.21-0.513-0.516-1.03-1.03-1.55-1.57-2.22-2.22-4.3-4.05-6.93-5.8v-2zm296 301 2 2v-2h-2z" fill="#F8F9FB"/>
<path transform="translate(621,314)" d="m0 0c10.9-0.0701 21.7-0.123 32.6-0.155 5.05-0.0155 10.1-0.0365 15.1-0.0709 4.89-0.033 9.78-0.0506 14.7-0.0583 1.85-0.00546 3.7-0.0161 5.54-0.0326 24.1-0.205 48.4 1.85 66.5 19.4 3.21 3.41 6.05 6.49 6.94 11.2 0.75 3.57 2.18 6.72 3.62 10.1 4.1 11.3 4.36 29.4-0.188 40.6-0.902 1.7-1.86 3.37-2.88 5-0.423 0.776-0.846 1.55-1.28 2.35-7.91 13.4-20.7 20.2-34.7 25.6 1.06 2.11 2.29 3.82 3.7 5.72 0.562 0.758 1.12 1.52 1.7 2.3 0.609 0.82 1.22 1.64 1.85 2.48 10.7 14.4 21.1 29 31.5 43.7 1.19 1.69 2.4 3.38 3.6 5.06 0.642 0.898 1.28 1.8 1.95 2.72 0.812 1.13 0.812 1.13 1.64 2.28 1.11 1.79 1.11 1.79 1.11 3.79h-3c-0.994 0.0995-1.99 0.199-3.01 0.302-26.1 2.49-26.1 2.49-33.8-1.91-4.46-4.22-7.23-9.38-9.91-14.8-1.93-3.8-4.37-7.15-6.85-10.6-0.884-1.29-1.77-2.59-2.64-3.89-3.61-5.27-7.36-10.4-11.1-15.6-0.507-0.697-1.01-1.39-1.54-2.11-0.793-1.04-0.793-1.04-1.6-2.1-1.54-2.25-1.54-2.25-2.77-4.99-1.63-3.25-2.84-5.06-5.77-7.26-6.61-1.68-13.7-0.934-20.4-0.625-1.9 0.0502-3.79 0.0958-5.69 0.137-4.63 0.11-9.25 0.282-13.9 0.488-0.646 21-1.12 42-1 63h-31c-1.57-3.15-1.14-6.51-1.13-9.97-0.00175-0.823-0.0035-1.65-0.00531-2.49-0.00441-2.73-0.00148-5.46 0.00189-8.19-6.73e-4 -1.89-0.00164-3.79-0.0029-5.68-0.00148-3.97 6.75e-4 -7.95 0.00534-11.9 0.00569-5.09 0.00242-10.2-0.00357-15.3-0.00361-3.91-0.00246-7.82 1.28e-4 -11.7 6.67e-4 -1.88-1.53e-4 -3.76-0.00248-5.63-0.00254-2.63 0.00133-5.25 0.0069-7.88-0.00202-0.777-0.00405-1.55-0.00613-2.36 0.0135-3.43 0.0518-6.6 1.14-9.87 1.62-0.0088 1.62-0.0088 3.27-0.0178 10.2-0.0574 20.4-0.13 30.6-0.218 5.25-0.0446 10.5-0.0839 15.7-0.111 5.07-0.0261 10.1-0.0666 15.2-0.117 1.93-0.0166 3.86-0.0282 5.79-0.0344 14 0.129 14 0.129 27.4-3.5 0.902-0.376 1.8-0.753 2.73-1.14 6.5-3.58 11.2-8 14.3-14.9 0.54-3.12 0.647-6.27 0.812-9.44 0.0638-0.846 0.128-1.69 0.193-2.56 0.276-4.97 0.113-7.89-3.01-12-0.268-0.825-0.536-1.65-0.812-2.5-3.12-6.57-9.65-8.81-16-11.5-6.49-2.06-13.2-2.17-19.9-2.22-0.83-0.0099-1.66-0.0198-2.52-0.03-2.72-0.0313-5.43-0.0563-8.15-0.0811-1.89-0.0206-3.79-0.0416-5.68-0.063-4.96-0.055-9.93-0.104-14.9-0.153-5.07-0.0504-10.1-0.106-15.2-0.161-9.94-0.107-19.9-0.209-29.8-0.307-1.52-4.56-1.18-9.1-1.19-13.9-0.0122-0.994-0.0245-1.99-0.0371-3.01-0.00193-0.963-0.00387-1.93-0.00586-2.92-0.00411-0.876-0.00822-1.75-0.0125-2.66 0.27-2.82 1.15-4.94 2.24-7.54z" fill="#FBFCFE"/>
<path transform="translate(1275,314)" d="m0 0c1.08 3.45 1.04 6.48 0.879 10.1l-0.146 3.52c-0.0561 1.21-0.112 2.41-0.17 3.66-0.0522 1.22-0.104 2.44-0.158 3.7-0.13 3.02-0.265 6.03-0.404 9.05-1.04 0.413-2.08 0.825-3.15 1.25-8.7 3.56-15.9 7.31-22.9 13.8-0.62 0.495-1.24 0.99-1.88 1.5-10.3 8.89-15.4 25-16.8 38.1-0.345 4.8-0.391 9.56-0.312 14.4h1c-0.0412 1.2-0.0825 2.39-0.125 3.62 0 4.81 0.617 8.87 4.12 12.4 1.05 2.15 2.06 4.32 3.06 6.5 7.92 16.4 21.5 24.9 37.9 31.5-0.33 9.57-0.66 19.1-1 29-12.6-2.37-22.9-5.56-34-12-0.873-0.507-1.75-1.01-2.64-1.54-15.9-10-28.8-25.4-34.4-43.5v-3c-0.66-0.33-1.32-0.66-2-1-0.729-2.77-1-5.13-1-8h-2c-6-25.8 0.791-50.6 13.7-73 15-23.5 36.3-33.2 62.3-40zm-77 96v6h1v-6h-1zm35 20 1 2z" fill="#FAFBFD"/>
<path transform="translate(1304,315)" d="m0 0c6.32 0.531 11.9 1.63 17.9 3.69 0.784 0.268 1.57 0.535 2.38 0.811 11.7 4.11 23.4 10.2 30.8 20.5 2.21 2.26 4.44 4.48 6.75 6.62 1.25 1.38 1.25 1.38 2.25 4.38 1.73 2.9 1.73 2.9 3.56 4.31 2.01 2.36 1.99 4.66 2.44 7.69 0.66 0.66 1.32 1.32 2 2 0.365 1.32 0.691 2.66 1 4 1.22 3.34 2.48 6.68 3.75 10 3.06 9.07 3.62 18.2 3.57 27.7-0.00564 1.14-0.0113 2.29-0.0171 3.47-0.35 24.4-9.12 44.3-26.3 61.8-0.686 0.699-1.37 1.4-2.08 2.12-12.7 12.1-30.7 19.8-47.9 21.9-0.96-2.88-1.13-4.72-1.13-7.71-0.00129-0.915-0.00258-1.83-0.00391-2.77 0.00387-0.954 0.00773-1.91 0.0117-2.89-0.00387-0.946-0.00773-1.89-0.0117-2.87 0.00129-0.918 0.00258-1.84 0.00391-2.78 0.00113-0.835 0.00226-1.67 0.00342-2.53 0.138-2.6 0.423-4.94 1.13-7.45 2.37-1.37 2.37-1.37 5.44-2.44 16-6.08 27.2-16.1 34.5-31.7 6.29-17.5 4.1-35.1 0.0312-52.9-0.227-0.99-0.454-1.98-0.688-3-6.26-14.3-18.7-24.5-32.9-30.2-1.2-0.459-2.4-0.918-3.63-1.39-0.927-0.449-1.85-0.897-2.81-1.36-0.983-2.95-1.13-4.89-1.13-7.96-0.00129-0.965-0.00258-1.93-0.00391-2.92 0.00387-1.01 0.00773-2.01 0.0117-3.05-0.00387-1-0.00773-2-0.0117-3.04 0.00129-0.966 0.00258-1.93 0.00391-2.93 0.00113-0.882 0.00226-1.76 0.00342-2.67 0.122-2.28 0.49-4.24 1.13-6.43zm41 66 1 2zm1 3 1 3zm1 4 1 2zm1 5 1 2zm1 9 1 2z" fill="#FAFBFD"/>
<path transform="translate(1e3 314)" d="m0 0c4.93-0.0989 9.86-0.171 14.8-0.22 1.68-0.0201 3.35-0.0474 5.03-0.082 2.41-0.0485 4.82-0.0712 7.23-0.0889 0.75-0.0206 1.5-0.0413 2.27-0.0626 5.2-0.00224 5.2-0.00224 7.61 2.29 1.07 2.16 1.07 2.16 2.07 5.16 0.639 0.784 1.28 1.57 1.94 2.38 2.06 2.62 2.06 2.62 3.06 5.19 0.84 2.51 0.84 2.51 2.79 4.15 2.73 2.81 4.64 5.95 6.65 9.29 0.881 1.44 1.76 2.87 2.65 4.3 0.469 0.76 0.938 1.52 1.42 2.3 2.63 4.21 5.34 8.36 8.06 12.5 1.1 1.69 2.2 3.37 3.3 5.06 0.528 0.81 1.06 1.62 1.6 2.45 2.27 3.49 4.53 6.98 6.79 10.5 0.706 1.1 1.41 2.19 2.14 3.32 1.61 2.55 1.61 2.55 2.61 4.55 0.852 1.35 1.72 2.7 2.59 4.04 0.538 0.828 1.08 1.66 1.63 2.51 0.567 0.869 1.13 1.74 1.72 2.63 0.798 1.23 0.798 1.23 1.61 2.48 0.55 0.845 1.1 1.69 1.67 2.56 0.552 0.866 1.1 1.73 1.67 2.62 1.49 2.22 2.98 4.28 4.64 6.36 7.62 9.89 8.81 17.4 8.23 29.7-0.0412 1.66-0.0778 3.32-0.11 4.98-0.0961 4.32-0.253 8.63-0.425 12.9-0.193 5.21-0.309 10.4-0.437 15.6-0.203 7.86-0.503 15.7-0.786 23.6h-33c-1.15-3.46-1.05-5.98-0.955-9.62 0.033-1.39 0.0657-2.77 0.098-4.16 0.0187-0.735 0.0374-1.47 0.0567-2.23 0.112-4.74 0.168-9.49 0.236-14.2 0.0631-4.15 0.144-8.31 0.263-12.5 0.115-4.03 0.179-8.06 0.21-12.1 0.0207-1.52 0.0591-3.05 0.117-4.57 0.466-12.7-3.29-19.8-11-29.6-0.959-1.42-1.91-2.85-2.82-4.3-0.382-0.59-0.764-1.18-1.16-1.79-0.379-0.588-0.757-1.18-1.15-1.78-0.436-0.674-0.872-1.35-1.32-2.04-2.86-4.43-5.7-8.88-8.53-13.3-1.04-1.64-1.04-1.64-2.11-3.32-1.36-2.14-2.73-4.29-4.08-6.44-3.77-5.93-7.73-11.6-11.9-17.3-3.13-4.36-5.97-8.89-8.81-13.4-4.6-7.32-9.26-14.6-14.2-21.7-1.95-2.85-3.21-5.2-3.93-8.57zm102 107 1 2z" fill="#F6F7F9"/>
<path transform="translate(827,314)" d="m0 0h136c-0.33 9.9-0.66 19.8-1 30h-135c-1-3.01-1.13-5.04-1.13-8.18-0.00129-1.01-0.00258-2.02-0.00391-3.06 0.00387-1.05 0.00773-2.11 0.0117-3.19-0.00387-1.05-0.00773-2.1-0.0117-3.18 0.00129-1.01 0.00258-2.02 0.00391-3.06 0.00113-0.924 0.00226-1.85 0.00342-2.8 0.129-2.52 0.129-2.52 1.13-6.52z" fill="#EBEBED"/>
<path transform="translate(827,467)" d="m0 0h136c-0.33 9.57-0.66 19.1-1 29h-135c-0.96-2.88-1.13-4.72-1.13-7.71-0.00129-0.915-0.00258-1.83-0.00391-2.77 0.00387-0.954 0.00773-1.91 0.0117-2.89-0.00387-0.946-0.00773-1.89-0.0117-2.87 0.00129-0.918 0.00258-1.84 0.00391-2.78 0.00113-0.835 0.00226-1.67 0.00342-2.53 0.129-2.45 0.129-2.45 1.13-7.45z" fill="#FCFDFF"/>
<path transform="translate(827,390)" d="m0 0c15.9-0.0233 31.8-0.041 47.7-0.0518 7.38-0.00516 14.8-0.0122 22.1-0.0236 6.43-0.00995 12.9-0.0164 19.3-0.0186 3.41-0.00131 6.81-0.00439 10.2-0.0116 3.8-0.00721 7.59-0.00826 11.4-0.0078 1.71-0.00539 1.71-0.00539 3.45-0.0109 1.54 0.00206 1.54 0.00206 3.11 0.00417 0.899-9.22e-4 1.8-0.00184 2.72-0.00279 2.03 0.123 2.03 0.123 3.03 1.12 0.102 2.66 0.139 5.28 0.125 7.94 0.00387 0.723 0.00773 1.45 0.0117 2.19-0.0101 5.74-0.559 11.1-1.14 16.9h-122c-0.94-2.82-1.13-4.57-1.13-7.49-0.00129-0.87-0.00258-1.74-0.00391-2.64 0.00387-0.906 0.00773-1.81 0.0117-2.75-0.00387-0.898-0.00773-1.8-0.0117-2.72 0.00129-0.873 0.00258-1.75 0.00391-2.64 0.00113-0.793 0.00226-1.59 0.00342-2.4 0.139-2.53 0.612-4.88 1.13-7.36zm121 4v14h1v-14h-1z" fill="#FCFDFF"/>
<path transform="translate(1181,314)" d="m0 0c-1.66 4.36-3.87 8.04-6.5 11.9-0.908 1.34-1.82 2.68-2.72 4.03-0.463 0.682-0.926 1.36-1.4 2.07-1.71 2.53-3.4 5.08-5.09 7.63-6.39 9.64-12.9 19.2-19.6 28.7-3.34 4.79-6.64 9.59-9.85 14.5-0.539 0.819-1.08 1.64-1.63 2.48-1.06 1.62-2.12 3.24-3.17 4.87-0.485 0.739-0.971 1.48-1.47 2.24-0.645 0.991-0.645 0.991-1.3 2-1.3 1.67-1.3 1.67-4.3 3.67-0.641-0.834-1.28-1.67-1.94-2.53-0.416-0.541-0.832-1.08-1.26-1.64-0.911-1.19-1.82-2.37-2.73-3.56-2.06-2.7-4.14-5.36-6.33-7.96-0.637-0.762-1.27-1.52-1.93-2.31-0.571-0.66-1.14-1.32-1.73-2-1.48-2.74-0.908-4.04-0.082-7 1.18-2.09 1.18-2.09 2.67-4.16 0.835-1.18 0.835-1.18 1.69-2.37 0.605-0.834 1.21-1.67 1.83-2.53 1.28-1.8 2.57-3.6 3.85-5.4 0.659-0.919 1.32-1.84 2-2.78 2.47-3.46 4.92-6.95 7.34-10.4 1.17-1.67 2.35-3.33 3.55-4.97 2.9-4.01 5.41-7.86 7.46-12.4 8.48-17.2 25.9-13.6 42.6-12z" fill="#F4F5F7"/>
<path transform="translate(429,443)" d="m0 0c3.42 0.584 5.06 1.69 7.49 4.14 0.673 0.67 1.35 1.34 2.04 2.03 0.727 0.74 1.45 1.48 2.2 2.24 0.774 0.776 1.55 1.55 2.35 2.35 2.56 2.57 5.12 5.15 7.67 7.73 1.78 1.79 3.56 3.57 5.33 5.36 4.21 4.22 8.41 8.45 12.6 12.7 7.96 8.03 15.9 16 23.9 24 2.62 2.63 5.24 5.27 7.85 7.91 1.6 1.61 3.21 3.23 4.81 4.84 1.09 1.1 1.09 1.1 2.2 2.23 1.01 1.01 1.01 1.01 2.04 2.05 0.581 0.586 1.16 1.17 1.76 1.78 1.74 1.7 1.74 1.7 3.95 3.2 0.588 0.466 1.18 0.933 1.78 1.41v2c0.853 0.362 0.853 0.362 1.72 0.73 2.73 1.52 4.54 3.34 6.71 5.58 0.781 0.802 1.56 1.6 2.37 2.43 0.724 0.745 1.45 1.49 2.2 2.26 1.02 0.981 2.04 1.96 3.06 2.94 1.94 2.06 1.94 2.06 1.94 4.06 0.598 0.289 1.2 0.577 1.81 0.875 2.19 1.12 2.19 1.12 5.19 3.12v3c-1.98-0.495-1.98-0.495-4-1v-2c-0.888-0.133-0.888-0.133-1.79-0.27-2.78-0.922-3.7-2.14-5.52-4.42-2.8-3.36-5.7-6.17-9.06-8.95-2.35-1.98-4.48-4.16-6.62-6.37-1.67-1.67-3.33-3.33-5-5-0.958-0.958-1.92-1.92-2.88-2.88l-1.53-1.53c-18.7-18.7-18.7-18.7-20.2-20.2-1.38-1.38-2.76-2.76-4.14-4.14-1.56-1.56-3.12-3.13-4.67-4.71-3.83-3.87-7.64-7.67-11.8-11.2-4.83-4.14-8.92-8.87-12.8-13.9-2.47-2.91-5.23-5.28-8.12-7.76-5.46-4.72-10.3-10.1-14.9-15.7v-1z" fill="#000002"/>
<path transform="translate(827,467)" d="m0 0h136c-0.33 1.32-0.66 2.64-1 4h-135v-4z" fill="#000002"/>
<path transform="translate(827,390)" d="m0 0c15.9-0.0233 31.8-0.041 47.7-0.0518 7.38-0.00516 14.8-0.0122 22.1-0.0236 6.43-0.00995 12.9-0.0164 19.3-0.0186 3.41-0.00131 6.81-0.00439 10.2-0.0116 3.8-0.00721 7.59-0.00826 11.4-0.0078 1.71-0.00539 1.71-0.00539 3.45-0.0109 1.54 0.00206 1.54 0.00206 3.11 0.00417 0.899-9.22e-4 1.8-0.00184 2.72-0.00279 2.03 0.123 2.03 0.123 3.03 1.12 0.0733 2.86 0.0924 5.7 0.0625 8.56-0.00451 0.806-0.00902 1.61-0.0137 2.44-0.0118 2-0.0298 4-0.0488 5.99h-1c-0.33-4.62-0.66-9.24-1-14-12.5-0.766-25-1.15-37.6-1.13-1.71-6.77e-4 -3.43-0.00165-5.14-0.0029-3.56-0.00146-7.12 6.15e-4 -10.7 0.00534-4.49 0.00568-8.99 0.00233-13.5-0.00345-18.1-0.0196-36.1-0.00315-54.1 1.13v-4z" fill="#000002"/>
<path transform="translate(331,476)" d="m0 0c3.19 0.581 4.82 1.45 7.1 3.74 0.586 0.583 1.17 1.17 1.78 1.77 0.631 0.643 1.26 1.29 1.91 1.95 0.674 0.675 1.35 1.35 2.04 2.05 2.23 2.24 4.45 4.48 6.67 6.73 1.55 1.56 3.1 3.11 4.65 4.67 4.08 4.1 8.16 8.21 12.2 12.3 6.51 6.57 13 13.1 19.6 19.7 2.27 2.29 4.55 4.58 6.82 6.87 1.4 1.41 2.8 2.82 4.21 4.24 0.627 0.635 1.25 1.27 1.9 1.92 3.56 3.58 7.21 6.88 11.1 10.1-0.99 0.66-1.98 1.32-3 2-6.54-3.83-10.8-9.19-15.4-15.1-2.68-3.08-5.56-5.64-8.65-8.29-3.74-3.23-7.02-6.77-10.2-10.5-2.96-3.42-6.13-6.35-9.57-9.27-3.9-3.42-7.48-7.16-11.1-10.9l-2.75-2.75c-1.5-1.5-3-3-4.5-4.5-1.95-1.94-3.9-3.87-5.87-5.79-1.07-1.05-2.13-2.1-3.2-3.14-0.55-0.533-1.1-1.07-1.67-1.62-1.38-1.36-2.7-2.78-4.02-4.2v-2z" fill="#000002"/>
<path transform="translate(621,314)" d="m0 0c10.9-0.0701 21.7-0.123 32.6-0.155 5.05-0.0155 10.1-0.0365 15.1-0.0709 4.89-0.033 9.78-0.0506 14.7-0.0583 1.85-0.00546 3.7-0.0161 5.54-0.0326 22.9-0.195 46.7 1.43 64.5 17.5 1.9 1.88 3.74 3.79 5.54 5.77-0.33 0.66-0.66 1.32-1 2-0.485-0.519-0.969-1.04-1.47-1.57-4.49-4.67-8.81-8.39-14.5-11.4-0.834-0.443-1.67-0.887-2.53-1.34-5.98-2.95-11.5-4.45-18.1-5.3-2.34-0.359-2.34-0.359-3.34-1.36-9.93-1.7-20.3-1.15-30.3-1.13-1.86-6.75e-4 -3.72-0.00165-5.58-0.0029-3.88-0.00147-7.75 6.45e-4 -11.6 0.00534-4.97 0.00573-9.94 0.00239-14.9-0.00357-3.83-0.00361-7.66-0.00247-11.5 1.28e-4 -1.83 6.67e-4 -3.67-1.52e-4 -5.5-0.00248-2.55-0.00253-5.11 0.00132-7.66 0.0069-0.757-0.00202-1.51-0.00405-2.3-0.00613-3.13 0.0127-5.59 0.137-8.58 1.14 0.33-1.32 0.66-2.64 1-4z" fill="#000002"/>
<path transform="translate(341,399)" d="m0 0c0 3 0 3-1.16 4.53-0.532 0.529-1.06 1.06-1.61 1.6-0.866 0.865-0.866 0.865-1.75 1.75-0.611 0.595-1.22 1.19-1.85 1.8-0.603 0.607-1.21 1.21-1.83 1.84-4.53 4.47-4.53 4.47-6.8 4.47-0.227 0.557-0.454 1.11-0.688 1.69-1.69 2.97-3.78 5.03-6.31 7.31h-2c-0.268 0.639-0.536 1.28-0.812 1.94-1.19 2.06-1.19 2.06-4.19 3.06-0.33 0.66-0.66 1.32-1 2l-1 2c-0.99 0.33-1.98 0.66-3 1-0.443 0.888-0.443 0.888-0.895 1.79-1.44 2.88-3.36 4.42-5.79 6.52-3.83 3.35-7.45 6.78-10.9 10.5-1.38 1.21-1.38 1.21-3.38 1.21-0.268 0.639-0.536 1.28-0.812 1.94-1.19 2.06-1.19 2.06-4.19 3.06-0.33 0.66-0.66 1.32-1 2-0.33 0.66-0.66 1.32-1 2-1.49 0.495-1.49 0.495-3 1-0.426 0.853-0.426 0.853-0.861 1.72-1.56 3.12-3.9 5.29-6.37 7.7-0.762 0.757-0.762 0.757-1.54 1.53-1.62 1.6-3.24 3.2-4.86 4.8-1.1 1.09-2.2 2.18-3.3 3.27-2.69 2.67-5.38 5.32-8.08 7.98-0.33-0.99-0.66-1.98-1-3 6.35-6.39 12.7-12.8 19.1-19.2 2.95-2.96 5.9-5.93 8.85-8.9 2.84-2.86 5.69-5.72 8.54-8.58 1.09-1.09 2.18-2.19 3.26-3.28 1.52-1.53 3.04-3.05 4.56-4.58 0.866-0.87 1.73-1.74 2.62-2.64 2.1-1.86 2.1-1.86 4.1-1.86 0.262-0.599 0.523-1.2 0.793-1.82 1.28-2.31 2.47-3.48 4.52-5.12 3.74-3.09 7.12-6.43 10.5-9.93 0.625-0.642 1.25-1.28 1.89-1.95 0.581-0.605 1.16-1.21 1.76-1.83 1.55-1.36 1.55-1.36 3.55-1.36 0.495-1.49 0.495-1.49 1-3 1.57-1.54 1.57-1.54 3.56-3.19 4.39-3.71 8.42-7.7 12.4-11.8z" fill="#000002"/>
<path transform="translate(732,391)" d="m0 0 1 2c-5.06 7.02-11.7 11.3-20.1 13.6-3.91 0.599-7.75 0.618-11.7 0.645-1.32 0.0148-1.32 0.0148-2.66 0.03-2.89 0.0315-5.79 0.0563-8.68 0.0811-2.01 0.0206-4.02 0.0416-6.03 0.063-5.29 0.0551-10.6 0.105-15.9 0.153-5.4 0.0503-10.8 0.106-16.2 0.161-10.6 0.107-21.2 0.209-31.7 0.307v-3c1.62-0.0088 1.62-0.0088 3.27-0.0178 10.2-0.0574 20.4-0.13 30.6-0.218 5.25-0.0446 10.5-0.0839 15.7-0.111 5.07-0.0261 10.1-0.0666 15.2-0.117 1.93-0.0166 3.86-0.0282 5.79-0.0344 14.3-0.0513 28.6-0.544 39.4-11.3 0.959-1.08 0.959-1.08 1.94-2.19z" fill="#000002"/>
<path transform="translate(727,430)" d="m0 0c4.13 3.87 7.3 8.03 10.5 12.7 1.06 1.53 2.13 3.05 3.19 4.58 0.545 0.783 1.09 1.57 1.65 2.37 2.66 3.79 5.37 7.55 8.09 11.3 0.799 1.1 0.799 1.1 1.61 2.23 2.24 3.09 4.48 6.19 6.72 9.28 1.76 2.43 3.53 4.87 5.29 7.3 0.536 0.739 1.07 1.48 1.62 2.24 8.31 11.5 8.31 11.5 8.31 14-2 0-2 0-3.55-1.47-3.44-3.96-6.46-7.91-9.15-12.4-5.46-8.91-11.8-17.8-18.5-25.8-1.76-2.36-1.76-2.36-1.76-5.36h-2c-0.402-0.897-0.402-0.897-0.812-1.81-1.2-2.21-2.38-3.45-4.19-5.19-4-4.57-4-4.57-4-8h-2c-0.33-1.98-0.66-3.96-1-6z" fill="#000002"/>
<path transform="translate(1233,427)" d="m0 0c2.56 2.56 3.55 5.21 5.06 8.5 7.86 16.3 21.5 25.1 37.9 31.5-0.33 1.32-0.66 2.64-1 4-8.16-3.09-16.1-6.54-23-12-0.33-0.99-0.66-1.98-1-3-0.619-0.124-1.24-0.248-1.88-0.375-3.1-0.91-3.59-2.89-5.12-5.62-0.99-0.66-1.98-1.32-3-2-1.35-2.21-1.35-2.21-2.62-4.81-0.425-0.852-0.851-1.7-1.29-2.58-1.09-2.61-1.09-2.61-1.61-5.37-0.157-0.739-0.315-1.48-0.477-2.24-0.66-0.33-1.32-0.66-2-1v-5z" fill="#000002"/>
<path transform="translate(1275,314)" d="m0 0c0.495 1.98 0.495 1.98 1 4-0.861-0.0361-1.72-0.0722-2.61-0.109-17.6 0.568-35.4 11.7-47.7 23.6-2.47 2.34-5 4.47-7.69 6.55 5.23-12.5 21-21.5 32.8-26.8 7.87-3.07 16.1-5.12 24.2-7.25z" fill="#000002"/>
<path transform="translate(1337,445)" d="m0 0c0.495 0.99 0.495 0.99 1 2-1.22 1.59-2.45 3.17-3.69 4.75-0.684 0.882-1.37 1.76-2.07 2.67-3.84 4.42-8.38 7.4-13.3 10.4-1.49 0.912-2.96 1.87-4.41 2.85-3.41 1.79-6.74 2.48-10.5 3.31v-4c0.75-0.291 1.5-0.583 2.27-0.883 12.3-4.91 22.5-10.7 30.7-21.1z" fill="#000002"/>
<path transform="translate(1304,315)" d="m0 0c6.32 0.531 11.9 1.63 17.9 3.69 0.784 0.268 1.57 0.535 2.38 0.811 11.6 4.07 23.6 10.2 30.8 20.5-3.96-1.74-7.74-4.15-11-7v-2c-0.837-0.172-0.837-0.172-1.69-0.348-2.62-0.742-4.83-1.83-7.25-3.09-5.47-2.83-11-4.93-16.9-6.83-1.81-0.6-3.6-1.25-5.39-1.92-3.06-0.884-5.64-0.963-8.81-0.812v-3z" fill="#000002"/>
<path transform="translate(341,287)" d="m0 0c2.95 1.33 5.02 2.78 7.3 5.07 0.931 0.931 0.931 0.931 1.88 1.88 0.986 1 0.986 1 1.99 2.02 0.682 0.685 1.36 1.37 2.07 2.08 2.17 2.19 4.34 4.38 6.51 6.57 1.47 1.48 2.95 2.97 4.43 4.45 3.61 3.64 7.22 7.28 10.8 10.9-5.22 0-8.41-4.49-12-8-1.77-1.94-3.48-3.92-5.18-5.92-4.22-4.82-8.72-9.43-13.8-13.4-2.15-1.76-3.06-3.13-4.06-5.69z" fill="#000002"/>
<path transform="translate(1e3 314)" d="m0 0h35v3h-35v-3z" fill="#000002"/>
<path transform="translate(1148,314)" d="m0 0h33c-0.33 0.99-0.66 1.98-1 3h-33c0.33-0.99 0.66-1.98 1-3z" fill="#000002"/>
<path transform="translate(1085,387)" d="m0 0c4.3 3.73 6.87 8.42 9.75 13.2 0.507 0.84 1.01 1.68 1.54 2.55 1.24 2.06 2.48 4.13 3.71 6.2h-3c-1.96-2.12-3-4-4.06-6.69-0.706-2.47-0.706-2.47-2.94-3.31-1.02-1.99-2.02-3.99-3-6-0.66-0.66-1.32-1.32-2-2v-4z" fill="#000002"/>
<path transform="translate(271,341)" d="m0 0c0 3 0 3-1.36 4.43-0.907 0.715-0.907 0.715-1.83 1.45-3.14 2.56-5.99 5.22-8.81 8.12 0-3 0-3 2.12-5.45 0.91-0.884 1.82-1.77 2.76-2.68 0.905-0.889 1.81-1.78 2.74-2.7 2.38-2.18 2.38-2.18 4.38-3.18z" fill="#000002"/>
<path transform="translate(651,470)" d="m0 0h1v13h-1v-13z" fill="#000002"/>
<path transform="translate(362,375)" d="m0 0 2 1z" fill="#FCFDFF"/>
</svg>
